ply
format ascii 1.0
comment PCL generated
element vertex 206
property float x
property float y
property float z
element camera 1
property float view_px
property float view_py
property float view_pz
property float x_axisx
property float x_axisy
property float x_axisz
property float y_axisx
property float y_axisy
property float y_axisz
property float z_axisx
property float z_axisy
property float z_axisz
property float focal
property float scalex
property float scaley
property float centerx
property float centery
property int viewportx
property int viewporty
property float k1
property float k2
end_header
-0.088486001 0.527466 -0.87016201
-0.28051099 0.27002701 -0.91405702
-0.38303399 0.38593799 0.55571997
-0.34344801 0.31055799 0.54271299
-0.36333299 0.36488101 0.60898298
-0.30653 0.212668 0.62513697
-0.32525301 0.256722 0.648197
-0.094585001 0.702461 0.919294
-0.045279998 0.20252299 0.94149202
-0.106616 0.22217 0.97193098
-0.33792201 0.260185 0.592933
-0.34400901 0.306068 0.635409
-0.351078 0.29928899 0.60105997
-0.359716 0.53820902 0.533934
-0.35527799 0.33788201 0.57211298
-0.34309301 0.28778201 0.56476003
-0.331173 0.281795 0.52249801
-0.298686 0.224123 0.56607097
-0.32067099 0.253135 0.56209499
-0.096377 0.74018598 0.849747
-0.28354499 0.24155299 -0.90340102
-0.36082301 0.508551 0.520145
-0.37423199 0.487252 0.492908
-0.36198699 0.49643299 0.56339502
-0.036206 0.184872 0.91954398
-0.37572101 0.42118999 0.55222499
-0.38050699 0.354114 0.543239
-0.371474 0.37257099 0.58305901
-0.24578001 0.30049601 -0.91555202
-0.273442 0.25008899 -0.86654502
-0.27505001 0.28369901 -0.89096099
-0.106015 0.134533 0.96931499
-0.088255003 0.17056701 0.97196102
-0.059461001 0.206591 0.95003301
-0.054051999 0.182576 0.94751602
-0.055959001 0.129876 0.92346799
-0.13632999 0.171865 0.914083
-0.058809001 0.54674 -0.90655601
-0.14514901 0.61847103 0.919954
-0.048191998 0.51862401 -0.88033903
-0.098284997 0.662875 0.92689902
-0.126605 0.70201999 0.94055301
-0.133972 0.65349698 0.942375
-0.33439499 0.25648901 0.624865
-0.32792601 0.25226599 0.659908
-0.114241 0.73002601 0.910097
-0.319527 0.22922701 0.60618299
-0.309111 0.22199599 0.64289701
-0.27310401 0.228348 -0.85746801
-0.272571 0.28670001 -0.90940797
-0.315014 0.225511 0.62519902
-0.280866 0.265273 -0.89378297
-0.28113201 0.244661 -0.88451898
-0.27975401 0.239714 -0.92325902
-0.149168 0.715617 0.89227998
-0.144732 0.72785401 0.87667102
-0.105506 0.73641801 0.88301802
-0.093223996 0.72421497 0.89246601
-0.318591 0.239922 0.58320099
-0.30876201 0.23845799 0.563802
-0.30817601 0.226265 0.58793199
-0.32609901 0.26790699 0.54149503
-0.34497899 0.28340799 0.49459299
-0.31759599 0.233565 0.653449
-0.33316699 0.26926699 0.56207901
-0.33659199 0.28336599 0.54481101
-0.34990701 0.31066999 0.56901199
-0.36626399 0.34464699 0.55777299
-0.36618999 0.35544899 0.57574898
-0.32170299 0.237552 0.63364398
-0.326554 0.240292 0.61668801
-0.350961 0.557414 0.51899302
-0.36301699 0.517959 0.54842502
-0.36104101 0.52108699 0.529064
-0.15479501 0.65974498 0.94046903
-0.177875 0.64922798 0.90227801
-0.169048 0.66669297 0.90828198
-0.129926 0.679178 0.94402802
-0.121362 0.71888602 0.929039
-0.116778 0.65792298 0.93639302
-0.112988 0.68247002 0.936939
-0.035820998 0.528014 -0.89584303
-0.34427699 0.27748999 0.614223
-0.34877199 0.29367399 0.58295
-0.35436699 0.31966299 0.58613402
-0.34015101 0.2793 0.630355
-0.34876901 0.302995 0.61907399
-0.33725399 0.278593 0.650662
-0.16177499 0.64294797 0.92969602
-0.140632 0.63638502 0.93195701
-0.14911801 0.601349 0.90603399
-0.083949998 0.64360303 0.91236001
-0.053966001 0.53277498 -0.89019901
-0.079905003 0.55458403 -0.906241
-0.055984002 0.152914 0.93611503
-0.065949999 0.124205 0.936023
-0.083058998 0.14755 0.96309203
-0.064939 0.157315 0.95005298
-0.093010999 0.128186 0.95898199
-0.124368 0.63372397 0.93462801
-0.12578601 0.61265498 0.92214
-0.33771899 0.25774699 0.60814899
-0.34523699 0.27590999 0.596964
-0.340933 0.27274999 0.57991397
-0.329128 0.24423601 0.59885597
-0.33026201 0.255436 0.57987499
-0.35173601 0.55288899 0.50639099
-0.36022201 0.52588499 0.51334602
-0.35783401 0.53669697 0.50081599
-0.134335 0.15231299 0.95608503
-0.112421 0.1953 0.98396999
-0.094678998 0.193718 0.97409302
-0.078336 0.212154 0.959508
-0.077684999 0.23565599 0.94873703
-0.117785 0.22224399 0.96791202
-0.047316 0.19753601 0.943443
-0.048556998 0.203541 0.94375801
-0.024968 0.162209 0.88097298
-0.045426998 0.136122 0.90664601
-0.034959 0.160981 0.90203702
-0.168395 0.62484801 0.91611397
-0.12657 0.142801 0.92535299
-0.095647 0.685987 0.925358
-0.10977 0.70272499 0.931692
-0.084141999 0.70936698 0.90055001
-0.103367 0.71642101 0.91718602
-0.079360999 0.69108599 0.907175
-0.14501999 0.67459399 0.94975001
-0.16124199 0.68393898 0.91153198
-0.154597 0.70069897 0.905999
-0.33609799 0.28389201 0.64306599
-0.32747701 0.25461701 0.65170401
-0.31492499 0.23401999 0.64731598
-0.32928899 0.25633001 0.63944
-0.138301 0.70310903 0.788486
-0.30593699 0.214609 0.63621098
-0.29798099 0.21330599 0.59306198
-0.31207499 0.218997 0.61386597
-0.058478002 0.19215301 0.95251501
-0.040337998 0.199001 0.93479002
-0.35578901 0.32797399 0.60481799
-0.359088 0.34912699 0.58697301
-0.352029 0.330026 0.62518901
-0.36547199 0.36761001 0.59813601
-0.146671 0.176614 0.94509399
-0.355618 0.560911 0.556894
-0.36565101 0.51486403 0.57251698
-0.128328 0.198909 0.97635698
-0.104059 0.173427 0.981363
-0.075015001 0.191048 0.96320599
-0.070672996 0.17243899 0.96020502
-0.057092998 0.22488301 0.94077998
-0.34386501 0.30169499 0.55107301
-0.37804699 0.33005399 0.519912
-0.36785501 0.33500099 0.54064602
-0.33724499 0.29410401 0.52936399
-0.366162 0.31215501 0.51116902
-0.35042 0.32661599 0.55875802
-0.313651 0.25326899 0.540618
-0.303253 0.23881 0.54084402
-0.32288301 0.26854199 0.51807702
-0.111329 0.155145 0.983347
-0.098141 0.150501 0.97394198
-0.36748299 0.47600001 0.51617801
-0.36000201 0.48885 0.52936602
-0.36755201 0.444069 0.547315
-0.37443101 0.45191699 0.52504498
-0.39065701 0.38536701 0.54091901
-0.37795299 0.378829 0.56765199
-0.38469699 0.37139699 0.548787
-0.37650099 0.39600599 0.572537
-0.381574 0.40101001 0.554497
-0.27449399 0.27064699 -0.87680203
-0.26401201 0.25643101 -0.849666
-0.22845 0.307652 -0.912521
-0.26298201 0.29527599 -0.897995
-0.13463999 0.71625698 0.76914799
-0.131497 0.72783399 0.75040197
-0.28349999 0.21933 -0.875
-0.281728 0.260932 -0.90983301
-0.28031799 0.27649301 -0.90461999
-0.265104 0.29161701 -0.87453097
-0.264938 0.27716601 -0.858473
-0.255339 0.281005 -0.84030402
-0.231076 0.31176499 -0.88058299
-0.249042 0.303561 -0.88665903
-0.096506 0.545012 -0.88810802
-0.116862 0.53175002 -0.87924999
-0.065980002 0.52394599 -0.873779
-0.073004 0.53936797 -0.88581002
-0.38992399 0.34942001 0.52565801
-0.39431101 0.36801699 0.53210402
-0.37535599 0.36209199 0.56153399
-0.37207699 0.38978299 0.59096998
-0.37205499 0.41497201 0.57353002
-0.38982999 0.40445501 0.536726
-0.383324 0.42728201 0.53199798
-0.046199001 0.18020099 0.93565398
-0.025948999 0.18959799 0.90055501
-0.045345001 0.157079 0.92060602
-0.015065 0.52685302 -0.89843202
-0.029756 0.51572001 -0.88587201
-0.36532599 0.43644401 0.57064801
-0.366604 0.511446 0.48626301
-0.360374 0.501966 0.54029101
-0.36426899 0.49834001 0.507617
0 0 0 1 0 0 0 1 0 0 0 1 0 0 0 0 0 206 1 0 0
