ply
format ascii 1.0
comment PCL generated
element vertex 1137
property float x
property float y
property float z
element camera 1
property float view_px
property float view_py
property float view_pz
property float x_axisx
property float x_axisy
property float x_axisz
property float y_axisx
property float y_axisy
property float y_axisz
property float z_axisx
property float z_axisy
property float z_axisz
property float focal
property float scalex
property float scaley
property float centerx
property float centery
property int viewportx
property int viewporty
property float k1
property float k2
end_header
-0.091658004 -0.72604901 -0.96074498
-0.26078999 -0.65193301 -0.97860998
-0.21030501 -0.68859649 -0.96683049
-0.13819501 -0.71512651 -0.96728504
-0.34388274 -0.59079075 -0.97811878
-0.2976065 -0.62554926 -0.97981846
-0.41644001 -0.50596201 -0.97648001
-0.37325063 -0.53754866 -0.99185228
-0.43561101 -0.45703951 -0.98365152
-0.46241501 -0.37767199 -0.99000001
-0.49843323 -0.27862078 -0.97253251
-0.49933699 -0.192294 -0.969971
-0.48669302 -0.1146805 -0.96975601
-0.43810445 -0.034196202 -0.98146617
-0.42185101 0.010808 -0.965069
-0.36684549 0.048702002 -0.98545498
-0.34263101 0.084425002 -0.97901201
-0.304692 0.1207715 -0.98587453
-0.26710799 0.19202501 -0.97448999
0.20561934 0.21768667 -0.96463728
0.26247299 0.2059235 -0.96533501
-0.24315199 0.246741 -0.97392797
-0.217537 0.29129401 -0.97006816
-0.14990801 0.318169 -0.990628
-0.166223 0.38008499 -0.984128
0.18290867 0.35600498 -0.96429133
-0.18370199 0.4464255 -0.97715902
0.197872 0.43142501 -0.96761036
-0.18767551 0.54218948 -0.96631551
0.198301 0.50392503 -0.96819901
-0.145954 0.567541 -0.96173799
0.048583001 0.58124399 -0.96366799
0.12417233 0.59297329 -0.97038203
0.1812875 0.57335854 -0.96856451
-0.161668 -0.72107798 -0.89357197
-0.10814925 -0.733127 -0.91864192
-0.042438749 -0.74506855 -0.91513067
0.0252515 -0.73861074 -0.90960348
0.089125998 -0.72074002 -0.914244
-0.326884 -0.65545452 -0.890571
-0.27767861 -0.66579109 -0.92277032
-0.19281663 -0.70052576 -0.92300892
-0.145592 -0.71724153 -0.92925596
0.146433 -0.706828 -0.90800399
0.19977599 -0.68362105 -0.91094249
0.264002 -0.640769 -0.92098802
-0.40369603 -0.57549965 -0.91536498
-0.3594541 -0.61678028 -0.93071973
-0.31893101 -0.63969898 -0.94154799
0.311169 -0.59918398 -0.92973
0.34015352 -0.57510853 -0.91462696
-0.43187997 -0.52847242 -0.92380124
0.37793466 -0.51999003 -0.91415715
-0.48444998 -0.42120999 -0.9230625
-0.46889478 -0.46353477 -0.91091996
0.39240399 -0.45846301 -0.93977302
0.40380201 -0.42512235 -0.91732168
-0.50261664 -0.36516976 -0.91380501
0.40893066 -0.35006598 -0.92561531
-0.5174613 -0.28468025 -0.92545533
0.41057634 -0.28467402 -0.91503471
-0.51520514 -0.20463891 -0.92137784
0.40681574 -0.200001 -0.92479694
-0.5008409 -0.12553033 -0.9111945
0.40318248 -0.1143925 -0.92167097
-0.48368701 -0.061778665 -0.92758495
-0.46511555 -0.026248336 -0.92418748
0.397865 -0.039221 -0.888044
0.40269899 -0.049480256 -0.9327305
-0.42694384 0.035707571 -0.91422671
-0.39576051 0.0686915 -0.93001449
0.39139703 0.041032284 -0.91199923
0.40195799 0.013593 -0.94786298
-0.35194615 0.11568317 -0.91725403
-0.31909999 0.139781 -0.946872
0.36837748 0.12492593 -0.91643941
-0.28859925 0.20687926 -0.91808861
0.156083 0.231701 -0.95415998
0.19424638 0.21240775 -0.91113341
0.28690872 0.1867159 -0.91583312
0.34237599 0.17195284 -0.92910415
-0.26733303 0.27431595 -0.91709614
-0.21378082 0.31034949 -0.92316443
0.156718 0.27640402 -0.95725453
0.16480021 0.26274237 -0.90709144
-0.17718868 0.35716799 -0.90981668
-0.159335 0.32586399 -0.94617999
0.2090195 0.36364847 -0.9213078
0.24207699 0.39143601 -0.89774901
-0.19259001 0.4532147 -0.91597855
0.21981774 0.44134998 -0.9423095
0.25007287 0.4440023 -0.89641243
-0.18584208 0.51466721 -0.91626072
-0.13316987 0.5494706 -0.91074038
-0.039586574 0.5362854 -0.90499896
0.026293857 0.53735232 -0.89768612
0.146063 0.55365598 -0.88479698
0.2141197 0.51934016 -0.91706532
0.243521 0.496483 -0.91710299
-0.10870983 0.57403237 -0.94681334
-0.065290332 0.56770104 -0.94617128
0.043767225 0.57353216 -0.93819958
0.11975241 0.58576989 -0.93163759
0.16822749 0.56685001 -0.93560302
-0.1859635 -0.73114496 -0.84976095
-0.11595085 -0.74630851 -0.84882635
-0.0512456 -0.75599617 -0.84131783
0.045785572 -0.75175351 -0.84580654
0.103259 -0.73491186 -0.84163547
-0.26050302 -0.68641734 -0.85784745
-0.222353 -0.66941601 -0.812644
0.18441467 -0.70228904 -0.83924896
0.25452301 -0.66408402 -0.84475398
-0.34801149 -0.59340298 -0.85704303
-0.29154673 -0.6052388 -0.82266623
0.30372101 -0.62663496 -0.85138798
0.35253048 -0.58614928 -0.83582199
-0.4244445 -0.50579149 -0.86741495
-0.37509847 -0.51829076 -0.83516002
0.38857159 -0.54363996 -0.84025514
0.40873152 -0.50094903 -0.84023571
-0.43801379 -0.44586238 -0.85489905
-0.376203 -0.43872899 -0.80519301
0.41747382 -0.44232681 -0.84111518
-0.49131149 -0.344598 -0.87343502
-0.4416607 -0.36034432 -0.83825737
-0.39137599 -0.39956501 -0.80604202
0.42183203 -0.36404449 -0.83602977
-0.50305104 -0.27949202 -0.87082052
-0.4370901 -0.27364185 -0.8221581
0.41454199 -0.27170634 -0.85887003
-0.50005502 -0.21819834 -0.8666597
-0.44044811 -0.20466629 -0.82315075
0.40980822 -0.19041125 -0.83177674
-0.49072799 -0.121292 -0.86347604
-0.44265637 -0.1226428 -0.83165514
-0.395825 -0.094214 -0.806903
0.39204699 -0.093261003 -0.80779201
0.40360802 -0.13554581 -0.83923161
-0.48080301 -0.071777999 -0.87907797
-0.43970001 -0.047712997 -0.84104908
-0.38633499 -0.025929 -0.81442201
0.38400033 -0.034459665 -0.83402014
-0.41597024 0.022077251 -0.85263127
-0.35634315 0.054016005 -0.82282144
0.30911401 0.070878997 -0.81491798
0.35737249 0.037122667 -0.83661145
-0.3487238 0.1119578 -0.8564378
-0.29621616 0.13572067 -0.82238644
0.21780749 0.14216425 -0.80800951
0.28541169 0.12883477 -0.84066588
0.33813724 0.103373 -0.86092401
-0.27295062 0.19909543 -0.83730584
-0.235471 0.19883449 -0.8083365
0.19360937 0.19893083 -0.84225464
0.27469468 0.163426 -0.86424035
-0.26284745 0.27135736 -0.85330796
-0.22046399 0.29671499 -0.82081258
0.17982517 0.28354684 -0.84488136
-0.18794234 0.34508261 -0.83878136
0.2199505 0.33109501 -0.83931553
0.26241267 0.37325934 -0.84194833
-0.17448498 0.4321363 -0.86210012
-0.1413915 0.46723151 -0.83343053
0.024110001 0.475218 -0.83001298
0.2294015 0.46545601 -0.87317669
0.25412861 0.42416161 -0.83269441
-0.11172843 0.50261426 -0.85790521
-0.046346743 0.49889693 -0.85911173
0.0461495 0.50351137 -0.85289866
0.12942988 0.53210264 -0.84709036
0.19188529 0.51161712 -0.86053067
-0.10454925 -0.748236 -0.77473223
-0.047453601 -0.75159222 -0.75812817
0.040310122 -0.74999392 -0.76280963
0.12020824 -0.7350415 -0.77237225
-0.20111319 -0.67546237 -0.77139413
-0.1422585 -0.69910598 -0.74163747
0.20020451 -0.70509303 -0.75733221
0.26795301 -0.66895229 -0.76051432
-0.26856464 -0.60686022 -0.76569963
-0.197956 -0.63821203 -0.72334498
0.36040899 -0.59481537 -0.76061362
-0.33691144 -0.51563627 -0.75495517
-0.30937952 -0.55937499 -0.75390601
0.4244515 -0.51695138 -0.75783551
-0.36926472 -0.44826251 -0.7543025
0.44528961 -0.43925801 -0.76043695
-0.408007 -0.32059199 -0.77419299
-0.39336473 -0.37515277 -0.76158798
0.45589969 -0.34753564 -0.739815
-0.41263381 -0.27761859 -0.75447941
0.44212365 -0.28472301 -0.76161265
-0.40723336 -0.20438866 -0.76145405
0.42180759 -0.19186601 -0.7683574
-0.39249149 -0.13673176 -0.77486026
0.38735336 -0.10941241 -0.78015757
0.41737825 -0.13329521 -0.74595916
-0.34485978 -0.043212198 -0.77130425
-0.30519551 -0.017385 -0.773983
0.36944711 -0.046351086 -0.76152706
0.40734199 -0.071677998 -0.72104901
-0.28259072 0.036331434 -0.77130842
-0.21848625 0.060208499 -0.76137471
0.28328925 0.062089495 -0.75708401
0.32815602 0.017486598 -0.76759738
-0.25828701 0.104399 -0.79126799
-0.2061924 0.11996379 -0.77268779
-0.148627 0.13948201 -0.73792797
0.22454341 0.121622 -0.76362926
0.25036621 0.096220598 -0.76611179
-0.19300418 0.19749315 -0.77992868
-0.13137734 0.202076 -0.73423666
0.20591459 0.19995859 -0.76143444
-0.18305266 0.288874 -0.78315097
-0.14462101 0.25962034 -0.74765998
0.2027812 0.27716359 -0.76312959
-0.17706025 0.35841975 -0.76112503
0.237137 0.32127401 -0.769032
0.27740422 0.36405522 -0.75815696
-0.171022 0.41098401 -0.77476102
-0.11840256 0.46382055 -0.76882404
-0.054467998 0.46514702 -0.76649725
0.0217105 0.46834749 -0.7646265
0.2580635 0.44970423 -0.75444645
0.063683003 0.49344599 -0.76040399
0.12988932 0.51429397 -0.77162069
0.18879876 0.50341576 -0.78205824
-0.038559113 -0.74053174 -0.67628956
0.025759665 -0.74209863 -0.66801435
0.12280619 -0.73134917 -0.68496501
-0.178803 -0.64933902 -0.67269099
-0.11922701 -0.69703174 -0.66690695
0.2076555 -0.70702553 -0.67661297
0.28283674 -0.66931653 -0.67732948
-0.25639364 -0.58105099 -0.69899702
-0.201463 -0.62247503 -0.70927602
0.3507843 -0.61777765 -0.67168903
0.40190399 -0.565193 -0.69063902
-0.34626731 -0.500117 -0.69068336
-0.304261 -0.53783602 -0.666426
0.44096589 -0.51495343 -0.67924106
-0.374603 -0.42176351 -0.66578746
0.46949115 -0.45415205 -0.67960942
0.48386499 -0.41535699 -0.66231096
-0.40101701 -0.33271399 -0.70207202
-0.39103252 -0.36872149 -0.69025052
0.47809851 -0.365991 -0.69066048
0.49458399 -0.35407901 -0.64352697
-0.40927073 -0.27231246 -0.67586851
0.47653651 -0.26750949 -0.68347901
0.49319899 -0.2795085 -0.64081752
-0.40565699 -0.20212701 -0.66358197
-0.39986101 -0.169291 -0.681041
0.45934668 -0.19268833 -0.69899505
0.487073 -0.21032999 -0.64102298
-0.38935226 -0.111011 -0.69895577
0.44693875 -0.113699 -0.68064344
-0.33951825 -0.029320002 -0.67635477
0.38674349 -0.014348499 -0.68796051
0.42359501 -0.055278003 -0.67379248
-0.268695 0.037035998 -0.6872074
-0.21114722 0.068223 -0.6906532
0.29783401 0.071681 -0.70504433
0.3501187 0.034313571 -0.67523295
-0.17809801 0.100541 -0.67084765
-0.156161 0.138284 -0.67926598
0.277069 0.1028349 -0.67526346
0.227093 0.21840799 -0.7001335
0.247347 0.20357549 -0.661641
-0.19008 0.30767599 -0.64451998
0.22945 0.267544 -0.670856
0.25634933 0.30677965 -0.68898326
-0.18713 0.35845751 -0.665703
0.30423626 0.36486101 -0.67249376
-0.175301 0.41125149 -0.68343353
-0.12215725 0.44867775 -0.67850572
-0.034807 0.4497605 -0.65416801
0.029957499 0.46218252 -0.6823045
0.27975634 0.43842602 -0.68226767
0.062533997 0.48823899 -0.66426599
0.12264525 0.51368654 -0.69560128
0.20690724 0.49502176 -0.68136829
-0.016235599 -0.73085576 -0.60047257
0.034137998 -0.7291196 -0.58991671
0.1009115 -0.7276085 -0.6184175
-0.18382242 -0.65932935 -0.60259044
-0.12986611 -0.68707722 -0.60468274
-0.050035 -0.71639597 -0.59071052
0.1843735 -0.7095775 -0.6084305
0.27983373 -0.67593497 -0.61117172
-0.26693067 -0.57993966 -0.60148263
-0.21856776 -0.63042951 -0.58915251
0.37545127 -0.59756303 -0.60603023
-0.33767602 -0.50414664 -0.61050296
-0.29774299 -0.55118799 -0.59749901
0.44167098 -0.51945442 -0.6006676
-0.36980534 -0.44118199 -0.5877853
0.47029439 -0.46115342 -0.60311568
0.48592502 -0.41921374 -0.60186148
-0.40387201 -0.323369 -0.58568901
-0.39072564 -0.37330365 -0.60137397
0.50075167 -0.36440066 -0.60129637
-0.41002133 -0.28686133 -0.59627599
0.50637698 -0.27910548 -0.59162551
-0.41075552 -0.2030915 -0.58161354
0.49318036 -0.18654501 -0.61032563
-0.393291 -0.11804625 -0.61399126
0.47404599 -0.121814 -0.63009101
0.48660553 -0.119028 -0.59379601
-0.36821449 -0.040720001 -0.59969527
0.44973698 -0.044116601 -0.6032058
-0.32413101 0.0070870002 -0.59537202
-0.26987299 0.049566202 -0.59669435
-0.21452624 0.075695999 -0.59398603
0.36245921 0.055252798 -0.6074388
0.41128552 0.016395001 -0.58742797
-0.18157899 0.10889533 -0.59737635
0.29512373 0.12242743 -0.59751076
0.32523566 0.088786662 -0.60164165
-0.16983201 0.238249 -0.59935898
-0.151834 0.1931915 -0.60846698
0.27590197 0.2013565 -0.59790397
-0.18751051 0.263614 -0.59763753
0.28183764 0.27939159 -0.5920372
-0.19353734 0.37887299 -0.57508272
0.310478 0.36712301 -0.62686002
0.34439951 0.37252301 -0.56988752
-0.16417301 0.414496 -0.59578902
-0.11308766 0.44198132 -0.58377463
-0.021828499 0.44375849 -0.57064605
0.040740501 0.45695001 -0.60367101
0.29523301 0.4502545 -0.60693449
0.329083 0.4104 -0.56220299
0.075189002 0.48477501 -0.57646298
0.12690233 0.51804334 -0.59006268
0.19164851 0.50909746 -0.59366703
0.26584399 0.48240399 -0.57857502
-0.18192632 -0.64924133 -0.5473277
-0.123739 -0.66551626 -0.51803201
-0.039661601 -0.70186478 -0.52456582
0.034131333 -0.71412969 -0.51998836
0.13381624 -0.70044076 -0.52492249
0.206214 -0.69051898 -0.54517001
0.26636201 -0.65673029 -0.511208
-0.25991401 -0.56941497 -0.51648098
-0.21092899 -0.61294597 -0.51335752
0.35955262 -0.60139495 -0.52622497
-0.33174902 -0.49539202 -0.53051949
-0.3029505 -0.53165102 -0.53438699
0.43177921 -0.522367 -0.52414203
-0.36322674 -0.43816724 -0.52374327
0.47189167 -0.44636333 -0.52568436
0.489153 -0.40003201 -0.51045603
-0.4044725 -0.324985 -0.54026854
-0.39017898 -0.36983597 -0.51779652
0.5031575 -0.35745201 -0.53079051
-0.41383418 -0.27674499 -0.50745648
0.5163905 -0.27930823 -0.51333773
-0.41726223 -0.198621 -0.51980925
0.51525748 -0.20402181 -0.51606041
-0.403137 -0.1226415 -0.51356149
-0.39083299 -0.086455002 -0.54617202
0.50455844 -0.1242468 -0.52809507
-0.37719351 -0.03740675 -0.51744771
0.46647599 -0.026720002 -0.52837801
0.4881275 -0.069158003 -0.53294748
-0.32642102 0.0182715 -0.51954746
-0.27534425 0.05495175 -0.51476723
-0.22666499 0.071557999 -0.51271349
0.37683901 0.066212334 -0.51882333
0.42714918 0.023899833 -0.51790982
-0.19008781 0.1104116 -0.51699317
0.31721598 0.1364655 -0.52952647
0.34007129 0.11145215 -0.51029456
-0.14681 0.193647 -0.54068899
0.30776399 0.195769 -0.52344537
-0.20259601 0.29651052 -0.53100848
0.29565999 0.26259199 -0.52866501
0.330946 0.29988348 -0.50840551
-0.172925 0.39710799 -0.48389101
0.35887223 0.35781851 -0.51470047
-0.14601301 0.42037401 -0.51718801
-0.055909 0.44046101 -0.48888952
0.043341003 0.45542875 -0.50856328
0.31812701 0.44497001 -0.54387403
0.34811699 0.42197201 -0.49601001
0.106519 0.503892 -0.48430899
0.21495649 0.50954449 -0.52388149
0.29033703 0.49233651 -0.50151801
-0.057197999 -0.66709203 -0.44461599
0.032331001 -0.70144099 -0.465518
0.125586 -0.67733502 -0.43576902
0.215938 -0.65792799 -0.43758565
-0.19442299 -0.58894199 -0.44322601
-0.125138 -0.6296317 -0.44022664
0.270345 -0.6188187 -0.43500766
0.34676251 -0.58719748 -0.44675827
-0.27203882 -0.51852238 -0.44349843
-0.226749 -0.55001801 -0.41757199
0.38995802 -0.54548049 -0.43391949
0.42518434 -0.50718635 -0.441856
-0.34136334 -0.4288137 -0.44996333
-0.30807099 -0.45302701 -0.41499799
0.46176052 -0.4490045 -0.44479948
0.48281401 -0.41063401 -0.47300699
-0.37137848 -0.36588049 -0.44312251
0.4953745 -0.3664425 -0.43619502
-0.40521351 -0.27328199 -0.43733048
-0.3910065 -0.3176305 -0.441266
0.51678503 -0.27820301 -0.43423751
-0.41834435 -0.20866168 -0.44551015
0.52072251 -0.19363926 -0.43787575
-0.41478825 -0.126102 -0.43304476
0.51357782 -0.12746783 -0.44179499
-0.38473526 -0.044868499 -0.425556
0.46548566 -0.014348666 -0.44082937
0.49066725 -0.05756475 -0.45637527
-0.34858501 0.0077180001 -0.44480368
-0.27692956 0.051620569 -0.43302545
-0.22684766 0.071429335 -0.43561801
0.38569361 0.059503004 -0.45254573
0.42374697 0.03890755 -0.43961847
-0.19711268 0.11708567 -0.41280735
0.368016 0.1146375 -0.43239212
-0.18436974 0.20719323 -0.44932425
0.34078369 0.19150449 -0.44471064
-0.21062833 0.25978333 -0.43493333
0.35329041 0.2852222 -0.43643999
-0.21003766 0.35400367 -0.45409933
0.385259 0.36860466 -0.45205966
0.40674099 0.370325 -0.42136499
-0.13520551 0.42005 -0.42369801
-0.042089 0.44312897 -0.41898933
0.044479001 0.45515668 -0.438458
0.36238453 0.44303727 -0.42939097
0.10517 0.50531948 -0.4224605
0.2022925 0.53181696 -0.43267149
0.28146699 0.51829702 -0.41664901
0.322925 0.499392 -0.44554201
-0.036646001 -0.64150798 -0.36317199
0.023626 -0.68342 -0.38159499
0.11008967 -0.65472364 -0.35432133
0.19770183 -0.64593869 -0.37991118
-0.16530199 -0.56120002 -0.36073101
-0.12590583 -0.59528184 -0.35929438
-0.0560138 -0.62177861 -0.33685881
0.21408151 -0.62561798 -0.35166582
0.28043726 -0.58524001 -0.37403548
-0.25118199 -0.498799 -0.38203701
-0.19997543 -0.52998281 -0.36589402
-0.147947 -0.55936199 -0.346387
0.30715099 -0.55035901 -0.33607399
0.3620975 -0.52788675 -0.35549149
0.41183299 -0.49661401 -0.383618
-0.28106502 -0.42628932 -0.35882899
-0.21617334 -0.45774332 -0.33837971
0.43874866 -0.43984899 -0.35392621
-0.33599848 -0.35460049 -0.3591235
-0.296482 -0.37679899 -0.32856801
0.4764145 -0.3799805 -0.35822001
0.49875802 -0.33500201 -0.38182199
-0.3765423 -0.27901056 -0.36893573
0.50722545 -0.27149349 -0.35670075
-0.4118225 -0.19331899 -0.39499003
-0.382871 -0.1947746 -0.34788722
0.51283026 -0.20110151 -0.359014
-0.38223761 -0.1087054 -0.3607536
0.5032928 -0.11324279 -0.36327118
-0.34695852 -0.027084665 -0.35349151
0.45570531 -0.029321998 -0.34384131
0.48219901 -0.059466999 -0.37330949
-0.33286199 0.019203499 -0.3871825
-0.27879477 0.038769443 -0.35210153
-0.23232932 0.065788001 -0.34840497
0.4205665 0.035759248 -0.37602049
-0.2132535 0.097067997 -0.34323502
0.39482269 0.11665366 -0.35802135
0.40715101 0.080472998 -0.343054
-0.2097495 0.21084534 -0.34966218
0.37362432 0.19035065 -0.36954033
-0.224204 0.2730785 -0.3460595
0.38180962 0.28049421 -0.36838821
0.40854299 0.31508899 -0.33834201
-0.18793701 0.37911868 -0.34333599
0.41599202 0.35835618 -0.3602494
-0.123335 0.43990251 -0.3647005
-0.052033499 0.44906199 -0.34369051
0.014619333 0.45562434 -0.36345169
0.39092952 0.44805449 -0.35054749
0.40701401 0.41199601 -0.35646001
0.067397997 0.48885301 -0.34935999
0.12113999 0.53277081 -0.3585152
0.2020065 0.54578799 -0.38445449
0.25981802 0.54403263 -0.349866
0.35399002 0.50230646 -0.36101601
0.154689 0.56214702 -0.372329
0.183755 0.567693 -0.335529
0.030689999 -0.64949101 -0.31096601
-0.086807504 -0.57612205 -0.275343
-0.044240337 -0.59245831 -0.27145031
0.040613998 -0.62361002 -0.27133867
0.13483833 -0.61959964 -0.27933899
0.2086585 -0.59720325 -0.28589875
0.25256899 -0.56113702 -0.28691399
-0.1255075 -0.521878 -0.28818923
0.28886366 -0.52297783 -0.28046885
0.34831765 -0.49782166 -0.30731401
-0.188637 -0.43344 -0.30260834
-0.151467 -0.45993 -0.27615601
0.36918736 -0.43773332 -0.26933315
0.42101401 -0.40505901 -0.28681201
-0.27247319 -0.34999058 -0.30039722
-0.21297401 -0.36918151 -0.2838915
0.43926165 -0.36329916 -0.27199998
0.48649701 -0.32738799 -0.31878
-0.33720803 -0.27409166 -0.30379099
-0.28687415 -0.2694855 -0.26698014
-0.22288632 -0.30024168 -0.25671235
0.46690282 -0.28527042 -0.26167756
0.4891665 -0.2748 -0.29501051
-0.34323177 -0.20246726 -0.29341975
-0.28318867 -0.20733766 -0.24947135
0.46863523 -0.20584026 -0.25363302
0.49285901 -0.20324832 -0.29299167
-0.35002699 -0.13774 -0.29792249
-0.30351502 -0.128004 -0.25448626
0.46468383 -0.104098 -0.27207839
0.49185467 -0.144235 -0.29920399
-0.33548176 -0.057065751 -0.2870045
-0.292299 -0.033364829 -0.26806575
0.44283417 -0.050347339 -0.27877468
-0.26094019 0.022798602 -0.2938664
-0.22849724 0.058481447 -0.28252447
0.42331934 0.035770375 -0.27847561
-0.2156132 0.0963642 -0.28581539
0.41309899 0.12362975 -0.26867676
-0.21550134 0.20174778 -0.27651611
0.39417201 0.205742 -0.30721799
0.40952468 0.19487034 -0.26310834
-0.23342749 0.27566901 -0.27406099
0.39912099 0.25377101 -0.302187
0.41992533 0.29280868 -0.26486367
-0.24135 0.32833299 -0.29301199
-0.202334 0.379035 -0.281681
0.43221366 0.35933718 -0.28779915
-0.176028 0.41425201 -0.27493501
-0.127085 0.4513844 -0.28359771
-0.043279499 0.45993751 -0.28471053
0.019876501 0.473546 -0.3082085
0.42851502 0.42544097 -0.27427962
-0.035631999 0.48067901 -0.241708
0.026821502 0.49332699 -0.26900101
0.099241003 0.53275049 -0.27769852
0.30563101 0.55481499 -0.28668299
0.37450999 0.51675999 -0.28624001
0.14903601 0.57020199 -0.28123999
0.193021 0.58165002 -0.28488299
0.26101601 0.56588 -0.285561
-0.014171 -0.58441299 -0.23339701
0.030686 -0.59333849 -0.2138215
0.1139265 -0.58714974 -0.20926274
0.178267 -0.56797349 -0.20102701
-0.083239496 -0.51240301 -0.214524
-0.037587501 -0.54519075 -0.19018173
0.024320001 -0.55959803 -0.164941
0.221522 -0.541448 -0.19426423
0.25915098 -0.51454538 -0.211233
-0.12430967 -0.44032633 -0.21709268
-0.074368998 -0.474024 -0.167294
0.29080373 -0.46841997 -0.1997195
0.33681133 -0.4207963 -0.21593933
-0.17429633 -0.35012969 -0.21617533
-0.13805 -0.390627 -0.192513
0.37804502 -0.36063862 -0.2027754
0.42035252 -0.32888448 -0.2267525
-0.1878655 -0.28672349 -0.18805
0.39609748 -0.29044151 -0.17457899
0.41934243 -0.27852628 -0.20755601
-0.256975 -0.173022 -0.229138
-0.21661033 -0.205202 -0.196968
0.43472281 -0.1975946 -0.2098718
-0.25349298 -0.11079361 -0.2119236
-0.23062833 -0.14063066 -0.187308
0.43941361 -0.12361125 -0.20666675
-0.25804943 -0.060461141 -0.21300571
-0.238686 -0.033124998 -0.17647299
0.44002658 -0.046717398 -0.20501259
-0.24029499 0.012513 -0.19665299
-0.22444266 0.060865331 -0.20908634
0.43422866 0.037751999 -0.21351767
-0.21136133 0.11317999 -0.2061255
0.43008626 0.11288275 -0.2086875
-0.22669233 0.20485455 -0.19008124
0.42321876 0.1982685 -0.22096851
-0.24482974 0.29036301 -0.18166625
-0.23596799 0.26149499 -0.233
0.4291445 0.27021399 -0.20573799
-0.245391 0.32412401 -0.219368
-0.218238 0.37220049 -0.2072375
0.44150457 0.35429102 -0.2077314
-0.17995724 0.42791349 -0.20731974
-0.12988761 0.47023478 -0.2005152
0.44320598 0.43724933 -0.18906267
-0.046454251 0.51028073 -0.19276449
0.0318054 0.53304338 -0.2091196
0.1000625 0.55373645 -0.21420249
0.377538 0.54104203 -0.21765034
0.41370898 0.49380451 -0.21068549
0.04256 0.562599 -0.172042
0.12027533 0.57872564 -0.19633901
0.19764125 0.6011703 -0.210767
0.29006302 0.58075321 -0.21458
0.35897899 0.571522 -0.192138
-0.022158999 -0.50693023 -0.12493141
0.029515333 -0.53440535 -0.126619
0.13072599 -0.52825266 -0.11303034
0.19526899 -0.51604903 -0.122226
0.24201 -0.48762599 -0.12886401
-0.098701999 -0.40645301 -0.139734
-0.047489662 -0.45018497 -0.10061166
0.29526225 -0.42536551 -0.13374475
-0.108082 -0.357169 -0.10272533
0.35456675 -0.34836 -0.1357215
-0.186766 -0.24736699 -0.154029
-0.15233049 -0.29064751 -0.121053
0.38390151 -0.282334 -0.11512683
-0.19070099 -0.1941295 -0.11913725
0.40859151 -0.19924074 -0.12375275
-0.21180128 -0.10426275 -0.11574665
0.42623675 -0.112043 -0.11778975
-0.21798635 -0.057615001 -0.12520534
0.44305968 -0.031377669 -0.118289
-0.21906149 0.045624249 -0.11800049
0.44710299 0.051321 -0.120229
-0.20745985 0.12088628 -0.12293229
0.44561499 0.114938 -0.123954
-0.22569084 0.20701939 -0.11762086
0.44218799 0.19710767 -0.125679
-0.2454485 0.27634376 -0.1285805
-0.2362705 0.25145951 -0.086716503
0.44669303 0.29396269 -0.10713834
-0.22610168 0.36581066 -0.11631101
0.45218232 0.36936533 -0.11871201
-0.18624499 0.43584317 -0.12077041
-0.15888099 0.47982499 -0.134479
0.45224333 0.43017101 -0.12249167
-0.12263475 0.50427097 -0.11531524
-0.05460934 0.54246837 -0.12849866
0.39211401 0.55694902 -0.093386002
0.42553973 0.50823879 -0.11089
-0.0066169999 0.56695801 -0.12899099
0.053489 0.58819401 -0.13472101
0.1178615 0.600398 -0.1358925
0.1910105 0.62333477 -0.1220085
0.28420126 0.60612524 -0.124853
0.36366051 0.58116579 -0.12575474
0.045272999 -0.49373299 -0.062339
0.1055515 -0.49312201 -0.0477845
0.19201601 -0.483794 -0.070060998
-0.017035 -0.43873018 -0.039202999
0.035717335 -0.45589003 -0.022306668
0.20254099 -0.45128536 -0.029425001
-0.0656505 -0.37182552 -0.040866502
0.28778148 -0.37729901 -0.034704499
0.32757002 -0.333619 -0.046763003
-0.11715175 -0.27284551 -0.03782025
0.37158599 -0.269205 -0.049880501
-0.16576201 -0.162793 -0.039190002
-0.153514 -0.201657 -0.046927001
0.39385653 -0.21505651 -0.0417565
0.40248501 -0.174201 -0.031392999
-0.19131285 -0.103822 -0.047846507
0.41748202 -0.1181035 -0.039336503
-0.1984008 -0.055536002 -0.0445772
0.43533301 -0.052718997 -0.042994998
-0.203999 0.032991 -0.033968002
0.44621196 0.018200332 -0.031873666
-0.1963453 0.12959142 -0.040048718
0.44976199 0.11167533 -0.036950335
-0.20580155 0.19699326 -0.038215455
0.45072433 0.20207368 -0.039462
-0.240347 0.29412401 -0.063873
-0.22533301 0.28788 -0.017031001
0.45627367 0.27453867 -0.027495334
-0.22276933 0.36627498 -0.049513329
0.45827368 0.34751102 -0.040857669
-0.17875351 0.4508625 -0.034011751
0.4565945 0.43421924 -0.034055252
-0.160889 0.48080301 -0.064317003
-0.12382685 0.51728189 -0.034498427
-0.079971999 0.54167199 -0.075487003
0.39378399 0.55893803 -0.048698999
0.433337 0.51047802 -0.031149
-0.031388499 0.56901902 -0.053681999
0.043010201 0.60423601 -0.0388694
0.1148105 0.62282699 -0.052724998
0.19237551 0.63457549 -0.0283945
0.27763361 0.62697899 -0.031213
0.35531542 0.59611875 -0.035271801
0.1122045 -0.42872375 0.036027249
0.209374 -0.40779501 0.026927501
-0.031270668 -0.35499397 0.030226
0.029954001 -0.39091152 0.047463499
0.217255 -0.38719699 0.050065
0.25028652 -0.36386499 0.052219748
-0.066074997 -0.294002 0.0332275
0.29036799 -0.31530899 0.047904
0.34241349 -0.2649675 0.018226001
-0.10894199 -0.19545268 0.031950999
-0.078429997 -0.230619 0.058327999
0.3778685 -0.19257301 0.043662999
-0.14151034 -0.11104134 0.042538334
0.39921501 -0.133632 0.078530997
0.41056901 -0.115611 0.0280775
-0.17883165 -0.050101999 0.030038999
0.42557248 -0.041936748 0.045209501
-0.18606199 0.029885001 0.039951336
0.44479752 0.058921501 0.037919998
-0.18274571 0.13674514 0.035712145
0.45133033 0.13105699 0.036511
-0.1895456 0.19636059 0.031845201
0.456453 0.19219466 0.038288336
-0.208795 0.27543533 0.04365167
0.46237168 0.27445734 0.051978335
-0.20141433 0.36322501 0.047968667
0.462136 0.35335135 0.021711335
-0.1836495 0.42629024 0.031522751
-0.1531385 0.4749935 0.053487003
0.455255 0.44180351 0.043890998
-0.11835539 0.51763523 0.034980603
0.42222866 0.53013098 0.037118666
-0.035606001 0.57197702 0.023884501
0.048485 0.61588275 0.056156751
0.11681926 0.63337648 0.037304252
0.198411 0.63881254 0.038912501
0.27053466 0.63670731 0.036463663
0.348793 0.59543604 0.039889667
-0.00082700001 -0.333377 0.084913
0.0519935 -0.33844501 0.110955
0.1189795 -0.34006551 0.13289651
0.19756299 -0.35681501 0.093800008
-0.0233205 -0.2814585 0.10382751
0.023972999 -0.28253701 0.14844
0.2034115 -0.29841048 0.1496055
0.26357254 -0.28098157 0.1315349
-0.038022503 -0.20986325 0.12991101
0.29493499 -0.224255 0.149694
0.32399303 -0.2075025 0.117282
-0.0896395 -0.13266149 0.1017445
0.35539201 -0.15409499 0.125192
0.40043399 -0.093397997 0.118025
-0.12865937 -0.04203625 0.12270213
0.39944601 -0.055267498 0.14943551
0.41672349 -0.020024002 0.110956
-0.1674815 0.044131 0.107582
-0.1506625 0.051087499 0.15254951
0.42945001 0.0392115 0.109796
-0.1702835 0.13427725 0.11600175
0.44376126 0.11739275 0.11478125
-0.1786145 0.20051801 0.10455476
0.45740101 0.204688 0.105132
-0.186627 0.29163301 0.1135675
0.46263799 0.28386 0.110202
-0.180898 0.36103201 0.120527
0.45976865 0.35084066 0.13554734
-0.162627 0.41878751 0.1127605
-0.135353 0.46239501 0.12245999
0.45099667 0.441874 0.11983
-0.104941 0.51010633 0.117048
-0.06622 0.54727501 0.12948951
0.39049801 0.55995297 0.122106
0.43861499 0.519813 0.091968
-0.019773001 0.58261299 0.100985
0.051248498 0.61916745 0.10905349
0.12068041 0.6334734 0.11894979
0.29179049 0.61889553 0.1223855
0.3469145 0.58906901 0.110826
0.21560334 0.64224935 0.118628
0.25992751 0.64192903 0.096958995
0.060284998 -0.27829701 0.16931801
0.11643501 -0.26380098 0.19744
0.17715199 -0.240622 0.209061
-0.017950499 -0.18638751 0.1716135
0.029057333 -0.21586967 0.202471
0.089367002 -0.209093 0.235119
0.215222 -0.221082 0.210952
0.26800218 -0.20018439 0.1992932
-0.029291749 -0.11191625 0.19811526
0.0072730002 -0.15895 0.21917
0.31216201 -0.138596 0.203326
0.35488951 -0.097876996 0.17781951
-0.090409003 -0.0087169996 0.202195
-0.062037002 -0.040511336 0.20736766
0.37514925 -0.024652999 0.20845425
-0.1158828 0.049022999 0.210627
0.385896 0.014573 0.223524
0.41001001 0.052004501 0.19980401
-0.13462749 0.121601 0.218217
0.42670602 0.1141255 0.19038451
-0.16675 0.235045 0.174014
-0.14885867 0.181493 0.216675
0.44049501 0.19276966 0.19681768
-0.17104401 0.28272599 0.160953
-0.15582581 0.2808632 0.2213774
0.45324898 0.28563249 0.1928045
-0.16777328 0.36012557 0.20780084
0.452456 0.35812801 0.20596801
-0.12372413 0.44543537 0.200683
0.43875301 0.43913651 0.22021151
-0.090926833 0.49610749 0.20810401
-0.065680668 0.52996451 0.20559181
0.42061499 0.53599697 0.177343
-0.01957 0.58471799 0.21056201
0.040835999 0.60561925 0.19221501
0.11210261 0.62204564 0.206333
0.23495001 0.62167299 0.222938
0.27519134 0.610865 0.19478633
0.34976351 0.57383454 0.20283499
0.19553301 0.64285946 0.21468401
0.045603 -0.176328 0.24487101
0.1284 -0.19464 0.254944
0.171202 -0.166263 0.267757
0.048672598 -0.1237316 0.27741498
0.13772899 -0.11851 0.30664098
0.212611 -0.136737 0.27704301
0.27280551 -0.11820076 0.25960249
-0.017119799 -0.029103002 0.26931939
0.018506 -0.0568785 0.291601
0.32134101 -0.050368998 0.26361901
-0.087977 0.078837 0.27467501
-0.052213199 0.0317582 0.2762658
0.36641434 0.041678667 0.27321601
0.40169001 0.071942002 0.24950001
-0.10278567 0.13612832 0.28627869
-0.068091497 0.099207498 0.31598049
0.38143799 0.10603 0.30439699
0.40620467 0.13247533 0.28151932
-0.13057062 0.2086025 0.28122371
0.41572598 0.19461733 0.29057899
-0.16339099 0.29533365 0.28778198
-0.15078676 0.26344573 0.27951774
0.43252599 0.27733076 0.27841276
-0.18913645 0.35960054 0.28689179
0.43684128 0.36856401 0.28315452
-0.2547825 0.42440099 0.31708699
-0.19862799 0.44735786 0.31231928
-0.14292835 0.44289336 0.26196635
0.4228285 0.43825999 0.28926951
-0.17110801 0.49534598 0.31664151
-0.1160825 0.51290083 0.27999601
0.38878801 0.54946297 0.26699299
0.405967 0.50377601 0.276241
-0.096754 0.56350201 0.314311
-0.045207996 0.57983094 0.27310717
0.043705575 0.61406243 0.28992915
0.10913267 0.63019437 0.284935
0.21222201 0.61893547 0.27578199
0.28051999 0.59034532 0.293183
0.14307401 0.64039552 0.29610151
0.166491 0.64066201 0.26207799
0.049649503 -0.036662001 0.33266124
0.11094825 -0.043926753 0.35535401
0.1954675 -0.037791498 0.35408199
0.27633899 -0.013336 0.33548066
-0.0232295 0.062403999 0.3304615
0.037772287 0.030994143 0.36215168
0.098004997 0.018267 0.39161199
0.160052 0.012927 0.39623901
0.32705501 0.040392999 0.32703501
-0.044752251 0.12356962 0.37170476
0.35684919 0.12867859 0.35473099
-0.1052646 0.19786331 0.3554498
0.38559949 0.20007449 0.36997801
-0.36620533 0.30385 0.3862339
-0.29268733 0.2908895 0.36682215
-0.20731783 0.28931499 0.34511498
-0.14199349 0.24664101 0.35329151
0.39204699 0.241469 0.38999999
0.40937671 0.29373765 0.36105299
-0.40737951 0.35980397 0.3896355
-0.36971399 0.35628873 0.35231557
-0.28667518 0.3492904 0.33184117
-0.22822399 0.338642 0.32271501
0.41661468 0.3624742 0.3556405
-0.40430099 0.42506999 0.382846
-0.36868989 0.44715998 0.35665411
-0.28857487 0.45486957 0.33052713
0.39217734 0.43987533 0.37681031
0.41557601 0.41574901 0.33496299
-0.33501711 0.50399059 0.3746455
-0.27353939 0.51502204 0.34919268
-0.20303041 0.52447385 0.33374301
-0.129196 0.55763698 0.33004099
0.36601299 0.53925002 0.33674848
-0.26816875 0.57366103 0.383138
-0.19502233 0.59038669 0.37276781
-0.11476541 0.5990634 0.3602916
-0.040733125 0.6173619 0.36159825
0.03390057 0.63090336 0.35263857
0.11707924 0.63420099 0.35083923
0.19836549 0.61245894 0.35132301
0.286479 0.58141398 0.3563
0.32728401 0.563043 0.395419
0.044296667 0.64527434 0.38657334
0.086897001 0.642196 0.39451301
0.050060999 0.069214001 0.40114599
0.1160755 0.062903248 0.42600173
0.204629 0.05910233 0.41872668
-0.033620108 0.15070911 0.44785118
0.025737111 0.11522277 0.44183695
0.11616867 0.103281 0.46231666
0.19639799 0.1091305 0.4605785
0.25240499 0.124294 0.45218199
-0.28079498 0.225199 0.45627075
-0.20091748 0.2062605 0.44498217
-0.12640634 0.17894845 0.45321709
-0.072036251 0.16291776 0.44221348
0.31026548 0.2025785 0.468025
0.34383199 0.2150265 0.43405128
-0.35949263 0.28487971 0.44213703
-0.2978324 0.2561422 0.42241722
0.35597175 0.27735201 0.45215273
-0.41979331 0.36308831 0.43742445
0.38306502 0.35433 0.4445928
-0.41467565 0.44287157 0.44141638
-0.390093 0.47441399 0.478315
0.36726898 0.43496251 0.44364351
-0.36399499 0.51864874 0.44164753
-0.31610101 0.55475801 0.40919799
0.29567799 0.55052501 0.47827801
0.34384698 0.51617801 0.41408402
-0.32768199 0.57067102 0.44797748
-0.28328088 0.60609543 0.43922389
-0.19952701 0.63254952 0.41796899
0.123533 0.62938899 0.42366651
0.19005533 0.60448998 0.45031968
0.26833749 0.57819599 0.44820201
-0.24847101 0.64377499 0.46359801
-0.1840014 0.65955001 0.4517644
-0.117525 0.66225642 0.44817784
-0.034292582 0.66092056 0.44684911
0.031088168 0.65710652 0.43273664
-0.17279901 0.157461 0.545811
-0.11377499 0.15137233 0.52892333
-0.03647 0.148561 0.50662076
0.043965336 0.142932 0.5041613
0.11748275 0.14317524 0.51928377
0.19900551 0.14172301 0.491256
0.25242999 0.156069 0.481996
-0.28440511 0.21001656 0.52335382
-0.19925559 0.16921461 0.52119261
-0.134202 0.16365874 0.49498177
0.091434501 0.1654935 0.54976404
0.20282233 0.17612566 0.53208703
0.27585974 0.20625174 0.51648557
-0.34192452 0.28781599 0.51689506
-0.31075576 0.24785423 0.51458925
0.29958627 0.28259975 0.52930272
0.32448599 0.282244 0.484429
-0.41303247 0.37390783 0.50230414
-0.38003919 0.35287881 0.53798741
0.31776699 0.35617599 0.53503799
0.34908599 0.36298376 0.49248523
-0.40574503 0.42393064 0.50245267
-0.37785858 0.43897176 0.53172332
0.30130699 0.46581599 0.55998999
0.33069652 0.44516999 0.51645446
-0.3595694 0.52423334 0.51796007
0.28915635 0.52386802 0.52262205
-0.33762342 0.58242124 0.52804941
-0.30399638 0.62379843 0.52914101
0.12892966 0.62511832 0.50844133
0.194051 0.59563202 0.525437
0.246989 0.57361299 0.55324501
-0.2602329 0.658562 0.51807511
-0.20103832 0.68453288 0.51360244
-0.11439949 0.69849104 0.52109283
-0.031686503 0.69335622 0.52247232
0.047370005 0.67032039 0.50909781
0.103969 0.642456 0.53329802
-0.1757115 0.15172601 0.59677196
-0.126724 0.14271381 0.60377324
-0.0463854 0.140251 0.60267603
0.030375667 0.15171599 0.57703871
-0.32170299 0.237552 0.63364398
-0.29190224 0.211082 0.59415251
-0.212984 0.163909 0.60324097
0.068949498 0.16523799 0.59130597
0.12160928 0.18123655 0.60095453
0.20231034 0.21365066 0.59145802
-0.33948499 0.27593538 0.59824175
0.26278684 0.28042933 0.59850496
-0.36562762 0.36395293 0.5918712
0.290939 0.36725754 0.59354699
-0.36378917 0.43920121 0.59751236
0.289538 0.43206 0.61201626
-0.36172944 0.51813078 0.6035111
0.229691 0.54289001 0.62705302
0.25169867 0.51779699 0.60787934
-0.33959356 0.59118497 0.60040402
-0.30497548 0.62820631 0.59744537
0.13647401 0.62839854 0.60668349
0.19049779 0.59239239 0.60314834
-0.26056284 0.66241181 0.59719425
-0.20215555 0.69781256 0.5925175
-0.11560866 0.7155273 0.58435732
-0.046841666 0.71118373 0.59561265
0.041346002 0.6878432 0.603037
0.105983 0.64954102 0.58850002
-0.146506 0.72139096 0.6269545
-0.17275099 0.15503851 0.67423451
-0.118059 0.1434124 0.67909801
-0.038140666 0.14480133 0.69143033
0.0073099998 0.15304001 0.65736902
-0.29353318 0.21624899 0.66411859
-0.21935999 0.177311 0.68362617
0.052566711 0.1719387 0.6765607
0.10662799 0.20162567 0.68785954
0.1684535 0.228652 0.6566515
-0.33276546 0.27812362 0.66181606
-0.30864701 0.27003002 0.70798004
0.15481199 0.249253 0.709108
0.20826411 0.28050053 0.67608011
-0.34795657 0.36497429 0.66709244
0.22902167 0.35510233 0.69241935
0.25655866 0.36680198 0.65616268
-0.3492651 0.43667924 0.678123
0.233615 0.43334067 0.70792133
0.25920436 0.43804535 0.66587234
-0.33929422 0.51570457 0.68862879
0.20682922 0.53477401 0.68522656
-0.33300376 0.57955998 0.66251153
-0.29144284 0.60695755 0.69093776
0.14537059 0.62196201 0.69463933
0.1829904 0.59467441 0.66749322
-0.253654 0.65791601 0.66344196
-0.19465762 0.68949252 0.67962766
-0.14193366 0.70899767 0.70913768
-0.023990501 0.71520352 0.68097246
0.041978717 0.69652742 0.69819731
0.1043925 0.65754855 0.66748852
-0.1157875 0.73240829 0.68605286
-0.066414997 0.72812599 0.69173002
-0.16801301 0.157759 0.733495
-0.12128714 0.14306442 0.75882185
-0.048514199 0.14130799 0.76892459
-0.26447201 0.23800801 0.73329401
-0.20249651 0.20903116 0.75668079
-0.15082967 0.19035132 0.77934599
-0.0177115 0.167236 0.78307152
0.045969702 0.19387349 0.75751215
0.094921 0.226916 0.75156349
-0.2706494 0.28506979 0.75854683
-0.21945834 0.27097568 0.79611164
0.13166751 0.26849011 0.75595355
0.17023951 0.30013102 0.73379451
-0.32830399 0.39416099 0.72300601
-0.29728502 0.3557446 0.75903702
0.14392401 0.3509523 0.78595835
0.1927865 0.36958197 0.74354881
-0.32712269 0.44939399 0.72963971
-0.292914 0.448241 0.77307999
0.19755499 0.4371163 0.76415175
-0.32381147 0.495262 0.72808754
-0.28467199 0.52236265 0.76145965
0.14931266 0.51388401 0.78406864
0.17981833 0.50911969 0.75256729
-0.260975 0.57982868 0.751302
-0.2040962 0.61565822 0.77469099
0.066408999 0.63987499 0.782529
0.11887564 0.60282981 0.7621147
0.174628 0.56404102 0.722646
-0.17865534 0.66353416 0.74407721
-0.14219844 0.68185371 0.76481777
-0.0223685 0.71713102 0.77994752
0.027732601 0.69255525 0.74872237
0.102651 0.64586401 0.72195601
-0.12024292 0.74714822 0.75664163
-0.059780501 0.73099303 0.75383103
-0.1113608 0.11659551 0.83684331
-0.048027225 0.13521555 0.8429873
-0.14370319 0.19971541 0.83946961
-0.0078689996 0.17693268 0.8365615
0.022385001 0.21634315 0.83061898
-0.18729779 0.27443311 0.84386331
-0.157868 0.31530201 0.863931
0.044801902 0.2810792 0.84622705
0.092871748 0.29994327 0.81953424
-0.25069401 0.36411598 0.81018573
-0.19466043 0.36108357 0.8474046
0.049765378 0.348239 0.86251533
0.099703193 0.35637897 0.83458376
-0.25254801 0.43430799 0.81402898
-0.19775225 0.43668786 0.84599984
-0.1336405 0.42897952 0.8738935
-0.017994 0.46274 0.87724298
0.044010002 0.42226124 0.86503148
0.1085915 0.4245705 0.83305752
-0.25073001 0.48526099 0.80823201
-0.20122501 0.52258939 0.83326054
-0.12064125 0.51969898 0.86986095
-0.0409608 0.51907319 0.87443316
0.038292166 0.51047397 0.85507655
0.11023801 0.50063735 0.81926298
-0.18898307 0.59623158 0.84383315
-0.037320878 0.59812021 0.86755264
0.038691286 0.59522212 0.8327502
-0.16316266 0.65331268 0.8599357
-0.14783899 0.68508631 0.83688051
-0.029695587 0.68734908 0.83152157
0.019377334 0.65411067 0.81638306
-0.12734865 0.74464148 0.83974379
-0.072549999 0.72968751 0.83667952
-0.10702162 0.11800646 0.92911869
-0.058023997 0.1360257 0.92176235
-0.17395799 0.21968268 0.9177537
-0.14661133 0.1881585 0.9216482
-0.040857833 0.20348269 0.92523903
-0.1843002 0.25124681 0.902825
-0.12261365 0.27148724 0.93047702
-0.044268701 0.27832523 0.90352345
-0.114355 0.34743375 0.88915956
-0.041681502 0.36104074 0.88781905
-0.102537 0.43209201 0.88153899
-0.050990246 0.428725 0.88309205
-0.1865342 0.61914521 0.90060103
-0.11855605 0.59912479 0.9082973
-0.066927999 0.61247754 0.89088953
-0.17060661 0.66888177 0.92820948
-0.11989433 0.6872108 0.92767745
-0.069860399 0.67685235 0.89716119
-0.13034171 0.73424518 0.91130859
-0.11017286 0.14075229 0.97605479
-0.169209 0.195243 0.96041602
-0.12280972 0.18950053 0.97733581
-0.072843999 0.1817435 0.96170551
0 0 0 1 0 0 0 1 0 0 0 1 0 0 0 0 0 1137 1 0 0
