ply
format ascii 1.0
comment PCL generated
element vertex 1137
property float x
property float y
property float z
element camera 1
property float view_px
property float view_py
property float view_pz
property float x_axisx
property float x_axisy
property float x_axisz
property float y_axisx
property float y_axisy
property float y_axisz
property float z_axisx
property float z_axisy
property float z_axisz
property float focal
property float scalex
property float scaley
property float centerx
property float centery
property int viewportx
property int viewporty
property float k1
property float k2
end_header
0.204501 0.54030597 -0.39754301
0.26584399 0.48240399 -0.57857502
0.378901 0.397845 -0.45339301
0.397865 -0.039221 -0.888044
0.39204699 -0.093261003 -0.80779201
0.024110001 0.475218 -0.83001298
0.39417201 0.205742 -0.30721799
0.39912099 0.25377101 -0.302187
-0.390093 0.47441399 0.478315
0.14903601 0.57020199 -0.28123999
0.30911401 0.070878997 -0.81491798
0.11196 0.611426 -0.11862
0.20926701 0.63280803 -0.0436
0.48385301 -0.053732 -0.39587501
0.48786199 -0.078988999 -0.55179697
0.49075201 -0.138485 -0.596829
0.47404599 -0.121814 -0.63009101
0.43861499 0.519813 0.091968
0.39049801 0.55995297 0.122106
0.405967 0.50377601 0.276241
0.38878801 0.54946297 0.26699299
0.346863 0.570979 0.230373
-0.114382 0.50945503 -0.120182
-0.074368998 -0.474024 -0.167294
0.476486 -0.38951501 -0.69471502
0.29036799 -0.31530899 0.047904
0.46263799 0.28386 0.110202
-0.180898 0.36103201 0.120527
-0.224453 0.31954199 -0.003143
0.32728401 0.563043 0.395419
0.086897001 0.642196 0.39451301
-0.44401199 0.0075849998 -0.877572
-0.48080301 -0.071777999 -0.87907797
-0.392618 0.066202998 -0.94066399
0.385896 0.014573 0.223524
0.41921401 0.065058 0.17672201
-0.395825 -0.094214 -0.806903
-0.23951 -0.044656999 -0.19093899
-0.24029499 0.012513 -0.19665299
-0.16675 0.235045 0.174014
0.34394199 0.60205603 0.018732
0.278575 0.62180698 0.14247
0.233292 0.64369202 0.14647201
0.32705501 0.040392999 0.32703501
0.30270699 -0.00085100002 0.325625
-0.156161 0.138284 -0.67926598
0.40043399 -0.093397997 0.118025
0.40822601 -0.13421001 0.0094039999
0.35539201 -0.15409499 0.125192
0.39414901 -0.181161 0.026258999
0.39240399 -0.45846301 -0.93977302
-0.098701999 -0.40645301 -0.139734
0.46145201 0.37339801 0.003246
0.229691 0.54289001 0.62705302
-0.13805 -0.390627 -0.192513
-0.13325 -0.13935301 0.031908002
-0.090409003 -0.0087169996 0.202195
-0.29774299 -0.55118799 -0.59749901
0.174628 0.56404102 0.722646
0.34527999 -0.62170303 -0.68763298
-0.304261 -0.53783602 -0.666426
-0.26336199 -0.58030999 -0.71872801
-0.376838 -0.41405401 -0.68299198
-0.197956 -0.63821203 -0.72334498
-0.178803 -0.64933902 -0.67269099
-0.151467 -0.45993 -0.27615601
-0.224103 -0.37060499 -0.29365799
-0.144926 -0.31387001 -0.128065
-0.013597 0.57660103 -0.06594
-0.040100001 0.54135603 -0.155067
-0.079080001 0.10814 0.31247199
0.04256 0.562599 -0.172042
-0.15632699 0.72056198 0.63567901
0.29493499 -0.224255 0.149694
-0.016733 -0.47786701 -0.083750002
0.385975 -0.023019999 -0.70164001
-0.40535599 0.43546799 0.38888901
-0.403256 0.44577399 0.48938301
0.106519 0.503892 -0.48430899
0.384233 -0.25488999 -0.059911001
0.24201 -0.48762599 -0.12886401
0.066408999 0.63987499 0.782529
0.198301 0.50392503 -0.96819901
0.31308001 -0.61404997 -0.87300402
-0.296482 -0.37679899 -0.32856801
-0.25118199 -0.498799 -0.38203701
-0.30807099 -0.45302701 -0.41499799
0.050060999 0.069214001 0.40114599
-0.011346 0.053564001 0.33483401
-0.017994 0.46274 0.87724298
0.25256899 -0.56113702 -0.28691399
0.0072730002 -0.15895 0.21917
-0.40415499 -0.32609001 -0.55545801
-0.17517699 0.450793 -0.14879601
-0.066412002 0.73424101 0.77592897
-0.48484901 -0.35999399 -0.87274599
-0.016953001 -0.37535599 0.029858001
-0.408474 0.37638399 0.38604099
-0.075015001 0.191048 0.96320599
-0.16983201 0.238249 -0.59935898
0.21573301 0.143494 0.48656401
0.134808 0.62920398 -0.042282
-0.085134998 -0.52685797 -0.229587
0.30535099 -0.47333199 -0.237014
0.43483701 0.014394 -0.22097901
-0.162517 0.15489499 0.70354801
-0.25991401 -0.56941497 -0.51648098
-0.014124 0.15231299 0.709001
0.44712701 0.45493099 -0.148588
0.010135 -0.70314097 -0.46291399
-0.23647 0.136042 -0.792512
0.030689999 -0.64949101 -0.31096601
-0.147947 -0.55936199 -0.346387
-0.16530199 -0.56120002 -0.36073101
-0.19008 0.30767599 -0.64451998
0.024320001 -0.55959803 -0.164941
-0.222353 -0.66941601 -0.812644
-0.31893101 -0.63969898 -0.94154799
-0.161668 -0.72107798 -0.89357197
0.34101999 0.00066000002 -0.79022801
-0.14045499 -0.71911401 -0.93648398
0.037829001 0.47872999 -0.31654099
-0.096754 0.56350201 0.314311
-0.129196 0.55763698 0.33004099
-0.16574401 0.50927597 0.31795701
-0.37411001 -0.42900699 -0.611013
-0.34062001 -0.49184901 -0.54995501
-0.24847101 0.64377499 0.46359801
-0.014171 -0.58441299 -0.23339701
0.045600001 -0.59596199 -0.20756499
0.44155899 0.23729099 -0.12557299
-0.237266 0.29551399 0.79866803
-0.39083299 -0.086455002 -0.54617202
0.0073099998 0.15304001 0.65736902
0.15481199 0.249253 0.709108
0.40190399 -0.565193 -0.69063902
0.103444 0.23506001 0.75295597
-0.14082099 0.43399799 -0.617652
0.37070701 -0.090754002 0.161961
0.31216201 -0.138596 0.203326
0.29080299 -0.19101501 0.188779
0.215222 -0.221082 0.210952
-0.35883999 -0.14531299 -0.313178
-0.019773001 0.58261299 0.100985
-0.30804399 -0.206663 -0.26253301
-0.134518 0.45288101 0.87125999
-0.211005 0.38113499 -0.22329
0.26200601 0.39454401 0.660281
0.41586801 -0.036779001 0.099408999
0.38143799 0.10603 0.30439699
-0.161415 0.67478698 0.46850801
-0.243137 0.38793901 0.82122397
-0.25073001 0.48526099 0.80823201
-0.057197999 -0.66709203 -0.44461599
-0.31909999 0.139781 -0.946872
-0.38633499 -0.025929 -0.81442201
-0.145971 -0.635948 -0.47501999
-0.179694 -0.635432 -0.512362
-0.226749 -0.55001801 -0.41757199
0.487073 -0.21032999 -0.64102298
0.105983 0.64954102 0.58850002
-0.14957 -0.70207602 -0.75256801
0.33685699 0.53495997 0.40823501
-0.116192 -0.217729 0.0059119998
0.113509 0.63211298 0.441459
-0.22822399 0.338642 0.32271501
0.43452001 0.036382001 0.083925001
0.051305 -0.742082 -0.67784899
0.097831003 -0.68467098 -0.44119
0.108688 -0.66552597 -0.38433999
0.432015 -0.32117701 -0.23406
0.49033901 -0.29159501 -0.30327401
0.311169 -0.59918398 -0.92973
-0.144971 0.249946 0.36254001
0.142086 0.57567501 -0.233363
0.286479 0.58141398 0.3563
-0.23295701 -0.156533 -0.21200299
-0.200339 -0.278099 -0.205917
0.43209001 -0.071208999 -0.05762
0.44583401 0.077877 0.049105
-0.18569399 0.37487 -0.67197001
-0.166223 0.38008499 -0.984128
-0.32087901 0.462318 0.739577
-0.14997 0.46166301 -0.83582801
-0.16710199 0.42093199 -0.691392
0.40248501 -0.174201 -0.031392999
0.44104299 -0.052164 -0.14492901
-0.32170299 0.237552 0.63364398
0.489153 -0.40003201 -0.51045603
-0.1876 0.315007 0.110482
0.40854299 0.31508899 -0.33834201
-0.168797 0.31647399 0.27671301
0.13411801 -0.25685099 0.207899
-0.36687201 -0.049219999 -0.79931498
-0.19396199 0.014608 0.0066889999
-0.079760998 0.72849703 0.85768503
0.217255 -0.38719699 0.050065
-0.078759998 0.443225 -0.418657
-0.296509 0.026895 -0.62733299
-0.23439699 0.069312997 -0.51245397
0.016804 0.455318 -0.71025401
0.19201601 -0.483794 -0.070060998
0.40261599 0.30116099 0.38413
0.19276799 -0.57403499 -0.21999399
0.44130599 0.222378 0.21560401
0.32134101 -0.050368998 0.26361901
-0.330203 0.566787 0.68319601
0.452456 0.35812801 0.20596801
0.22001 0.23534 -0.70791799
0.015747 -0.039724998 0.29927301
-0.0080399998 -0.28317001 0.121374
-0.138355 0.46874899 0.108094
0.16075499 0.57214099 -0.33857799
-0.41417101 -0.21858799 -0.573385
0.045603 -0.176328 0.24487101
-0.39986101 -0.169291 -0.681041
0.089367002 -0.209093 0.235119
0.171202 -0.166263 0.267757
0.42101401 -0.40505901 -0.28681201
0.237137 0.32127401 -0.769032
0.099316001 0.63233101 0.30987
0.246905 0.17145599 -0.67776901
-0.073774002 0.46035701 0.88169801
0.484283 -0.405247 -0.669967
0.42701799 -0.30514199 -0.80000001
0.47829399 -0.292458 -0.68445301
0.494798 -0.385198 -0.62930399
-0.055008002 0.71716601 0.62422198
0.47911799 -0.226796 -0.26758701
-0.26021001 0.43651801 0.31936201
0.33925501 0.38282001 -0.57094997
0.40701401 0.41199601 -0.35646001
0.028625 0.153937 0.606399
-0.49933699 -0.192294 -0.969971
0.20281801 0.619129 0.293515
0.23495001 0.62167299 0.222938
-0.15439799 0.072747998 0.15493099
-0.12384 0.119268 0.238499
-0.169607 0.15541799 0.128617
0.076439001 0.499432 -0.76475799
0.107216 0.50900298 -0.781771
0.329083 0.4104 -0.56220299
0.30862701 0.48528799 -0.50932699
0.26866701 0.46617299 -0.67911702
0.25242999 0.156069 0.481996
-0.21677101 0.087265 -0.36035201
0.20618901 0.50037497 -0.60953099
0.075189002 0.48477501 -0.57646298
-0.2818 0.0083999997 -0.30029801
-0.22512899 0.044188 -0.153145
-0.224709 -0.071872003 -0.153033
-0.14681 0.193647 -0.54068899
0.39641601 0.205956 0.36032301
-0.34093601 -0.61528403 -0.95943201
0.290162 -0.392057 -0.061680999
0.035289001 0.447395 -0.54731703
0.15437301 0.553581 -0.39628899
0.062533997 0.48823899 -0.66426599
0.23189799 0.49937201 -0.54772198
0.392387 -0.31068301 -0.182418
0.15911201 0.518098 -0.71402699
-0.40824801 -0.209994 -0.39072701
-0.39293501 -0.206065 -0.36186099
-0.142987 0.156039 0.794218
0.42202699 0.110222 -0.236393
0.16041701 -0.71820801 -0.62802303
-0.23782299 0.199284 0.71564102
0.31057599 0.397818 -0.63332999
0.48649701 -0.32738799 -0.31878
0.240178 0.47010499 -0.79279
-0.30755499 0.607144 0.474949
0.322925 0.499392 -0.44554201
-0.29689401 0.54490399 0.38198599
0.34811699 0.42197201 -0.49601001
-0.140632 0.63638502 0.93195701
0.074394003 0.53178 -0.86733299
-0.191293 0.120528 0.0053810002
-0.092878997 0.142223 0.309533
0.38275301 0.44486099 -0.375958
0.25528201 0.34898299 -0.79437298
0.25322399 0.31600901 -0.71652102
-0.049245 0.62915701 0.87979901
0.146063 0.55365598 -0.88479698
0.45602301 -0.216885 -0.71548802
0.001772 0.70324802 0.61957502
0.012483 0.38494301 0.87633401
0.16342799 0.25805801 -0.92121398
0.43069199 -0.51231998 -0.471818
0.35819501 0.313326 -0.46474099
0.40276501 -0.54477203 -0.78131902
0.456505 -0.440698 -0.39944401
0.214996 0.33440301 -0.86118102
0.451386 -0.472413 -0.45374799
0.015157 0.43911701 0.872621
0.210342 0.398893 -0.946778
0.40246201 -0.48474199 -0.87826198
0.41663301 0.44983801 -0.281674
0.41461301 0.48082501 -0.236168
-0.33166501 -0.650424 -0.89831501
0.33750299 0.15102001 0.39746001
0.085061997 -0.50086403 -0.053100001
0.39204699 0.241469 0.38999999
0.41183299 -0.49661401 -0.383618
0.187957 0.31257701 -0.877922
0.18594199 -0.014593 0.37325099
0.28343001 -0.101559 0.26704201
-0.371474 -0.59691799 -0.877859
0.33766201 0.23194499 0.45305401
-0.34263101 0.084425002 -0.97901201
-0.135838 -0.67002898 -0.54351699
-0.194709 0.62930799 0.90850598
0.40671399 0.547252 0.065054998
-0.065980002 0.52394599 -0.873779
0.40412799 -0.145184 -0.945216
-0.205961 -0.049426001 -0.072614998
-0.166447 -0.67047501 -0.62388599
0.326487 0.47593299 0.495785
0.13094901 -0.34031001 0.13624001
-0.38881999 -0.398103 -0.77910501
-0.123867 0.44410399 -0.38937199
0.31776699 0.35617599 0.53503799
-0.179215 0.38202101 -0.36951101
-0.200455 -0.69660097 -0.79746097
0.0025889999 0.44761401 -0.382826
-0.012778 0.170788 0.790959
0.017716 0.53452098 0.86005598
0.212874 0.459719 -0.95287198
0.206214 -0.69051898 -0.54517001
0.44561499 0.114938 -0.123954
-0.17806099 0.22637001 0.79361999
0.023972999 -0.28253701 0.14844
0.26855499 0.54481602 0.54219902
-0.413463 -0.290279 -0.77302098
-0.419267 -0.45986301 -0.9964
-0.18230499 0.39955601 -0.584997
-0.176194 0.34663001 -0.79110903
0.067264996 0.62689298 0.31549001
-0.19741701 -0.203372 -0.142703
-0.186766 -0.24736699 -0.154029
-0.234869 -0.319976 -0.27112001
0.0074609998 0.55343002 -0.925542
-0.31282201 0.28302401 0.38331899
-0.153539 0.680471 0.867239
0.066808 0.58723497 -0.95379502
0.33261299 0.31268299 -0.523996
-0.286625 0.386107 0.321859
-0.14264201 0.45628399 0.27643999
-0.23537201 0.46194801 0.31867701
-0.13966601 -0.67598301 -0.71182501
0.33611801 0.45900899 -0.47319099
-0.31610101 0.55475801 0.40919799
0.31812701 0.44497001 -0.54387403
-0.354985 0.50532198 0.39664301
0.44566 0.39138201 -0.221597
0.43400899 0.468759 -0.190376
-0.128372 0.68063003 0.47905201
0.355216 0.052916002 -0.63466299
0.322128 0.082172997 -0.634229
0.44824401 0.46901801 0.101486
-0.077468999 0.473726 -0.797203
0.025177 -0.72949201 -0.92867798
0.154689 0.56214702 -0.372329
0.32621601 -0.232171 0.087502003
0.401678 -0.41336399 -0.93847299
-0.16021401 0.66510898 0.87191302
-0.074093997 0.57541198 -0.95521498
-0.138301 0.70310903 0.788486
0.061755002 0.58663899 -0.96565002
-0.14902601 0.46549499 -0.22067399
-0.39045599 -0.370042 -0.63511503
-0.160889 0.48080301 -0.064317003
-0.409886 -0.27187601 -0.45318401
0.458446 0.296924 -0.021288
-0.162828 0.38420099 0.865839
-0.32267401 -0.52237499 -0.626656
0.49471599 -0.30310899 -0.64073402
0.13634001 0.63123 0.62839198
0.0087869996 0.233779 0.858693
-0.16717599 -0.70710599 -0.95338303
-0.134335 0.15231299 0.95608503
-0.26447201 0.23800801 0.73329401
0.115457 -0.71267802 -0.55668002
-0.15800001 0.27813399 -0.75823998
-0.23397499 0.317772 -0.84558302
-0.26385599 -0.13212 -0.227117
-0.439318 -0.497347 -0.87739098
-0.21432599 0.28476799 -0.4332
0.187461 0.30924299 0.71985102
-0.24308699 0.29146099 -0.205944
-0.212358 0.39252099 -0.110531
0.30152801 0.30914599 0.54031098
-0.22760101 0.290048 -0.34124899
-0.40101701 -0.33271399 -0.70207202
0.276701 0.46653 0.61081702
-0.176028 0.41425201 -0.27493501
-0.23596799 0.26149499 -0.233
-0.40387201 -0.323369 -0.58568901
0.25291201 0.46833199 0.65651798
-0.16675401 0.43977499 -0.229716
-0.15307 -0.041561998 0.092742004
0.47841701 -0.435334 -0.55911499
0.19112 0.37821099 -0.96597803
0.362414 0.45366701 0.43895701
-0.117083 0.435709 -0.44601101
-0.39137599 -0.39956501 -0.80604202
0.29567799 0.55052501 0.47827801
-0.46875399 -0.29307401 -0.84785199
-0.489858 -0.29638001 -0.98133302
-0.045545999 -0.055268999 0.21466801
-0.087977 0.078837 0.27467501
-0.018435 0.025472 0.30682501
0.43052801 0.0098789996 -0.55558699
0.40937501 -0.054030001 -0.70011598
0.51565099 -0.28668001 -0.53840297
0.090198003 0.61974698 0.78749597
0.25546801 -0.68555498 -0.688155
-0.36703601 0.031221 -0.998873
0.31530201 0.15658 -0.87705803
0.053376999 0.54352099 -0.20227499
-0.201463 -0.62247503 -0.70927602
-0.27620199 -0.569646 -0.63477498
-0.220452 -0.47748399 -0.35044801
-0.12958799 -0.54983598 -0.317159
-0.115971 -0.46354899 -0.225161
0.46384501 0.30530101 0.058584001
0.30621499 0.19612101 -0.95960802
0.084008001 0.315786 0.83872098
-0.51446199 -0.294489 -0.879758
-0.061122 -0.31619301 0.02362
0.313954 0.221834 0.47138199
-0.198681 0.23229399 -0.474601
-0.148627 0.13948201 -0.73792797
0.30037099 0.18209399 -0.54611802
-0.39813799 0.31903499 0.39781001
-0.237579 0.29225001 -0.26190799
0.26365 0.31257099 0.61636502
0.192425 0.22672699 0.624412
-0.018761 0.14347699 0.53537399
-0.100802 0.145971 0.544505
0.35716701 0.58297002 -0.15446299
-0.145954 0.567541 -0.96173799
0.078221999 -0.62970501 -0.281304
-0.22174001 0.175616 -0.79583001
-0.226973 0.30215099 -0.94070399
0.174998 -0.70459801 -0.85509998
-0.22599199 0.193215 0.47580999
0.40715101 0.080472998 -0.343054
0.205643 -0.69869298 -0.79753798
-0.210876 0.16200399 0.55874801
0.362084 0.089299999 -0.471798
-0.29423299 0.217843 0.474758
-0.33024201 -0.459575 -0.46494001
-0.172419 0.37870699 -0.94763398
0.28146699 0.51829702 -0.41664901
-0.32951999 0.57570702 0.460421
0.49992299 -0.35802299 -0.45454699
0.241256 0.449011 -0.91594398
0.102776 0.53006703 0.81554699
0.45829201 -0.070559002 -0.29087299
0.29387999 -0.61286402 -0.44803101
-0.157868 0.31530201 0.863931
0.42504799 -0.092219003 -0.70777398
-0.023267999 -0.530958 -0.15793601
0.24657001 -0.67446899 -0.51937699
-0.14662901 0.20428801 0.796161
0.36951301 -0.600133 -0.55470401
0.023752 0.68490499 0.53025299
0.40849599 -0.191333 -0.793154
0.37741899 -0.060366999 -0.79636401
-0.025803 -0.46551299 -0.076768003
-0.48049501 -0.41484299 -0.957228
0.36855999 0.064286999 -0.867598
0.234208 0.204055 -0.93519098
0.0031049999 0.301074 0.87834197
0.16717599 0.57820499 -0.96901399
0.002535 0.71227598 0.75393999
0.50394702 -0.14681999 -0.55377799
0.16914199 0.57134402 -0.948232
0.012466 0.66824198 0.81035697
0.51750499 -0.15062299 -0.458496
-0.51077598 -0.31841201 -0.94780803
-0.2358 0.22921699 -0.81610698
0.39378399 0.55893803 -0.048698999
-0.153155 0.55980903 -0.94474298
-0.16970301 0.109299 -0.69937903
-0.230093 0.057055999 -0.70951402
-0.107718 0.623393 0.38409299
0.214028 -0.70399803 -0.707461
0.40922901 0.105595 -0.30678901
-0.215028 0.16511901 0.61843801
0.35894099 0.557024 0.331974
-0.042730998 0.443232 -0.57269502
0.41337901 0.45561299 0.305884
0.45682701 0.38400501 0.15142301
0.182712 -0.69275802 -0.908952
-0.163118 0.47659999 -0.016557001
0.155753 0.63673002 0.15366501
0.062509 0.62374598 0.092001997
-0.043198001 0.45506299 -0.30147901
-0.35937101 0.46136001 0.63795501
-0.17668299 0.15166 0.61323297
0.42553699 0.0020949999 -0.315231
0.330163 -0.34635401 -0.070508003
0.39767399 0.055640999 -0.94751298
0.23435999 -0.40164301 0.019795001
0.030208999 0.44553801 -0.46257901
0.249817 -0.39448401 0.01353
0.45113799 0.310045 0.215462
0.217645 -0.55785298 -0.21831299
0.26652199 0.28916499 -0.63202697
-0.35200599 -0.55260098 -0.99835098
0.134672 -0.5478 -0.14597701
0.258755 -0.52982903 -0.23817299
0.264002 -0.640769 -0.92098802
-0.125356 0.225476 0.38474301
0.340635 -0.56689101 -0.93508399
-0.221048 0.084154002 -0.311959
0.026989 0.450818 -0.63467002
-0.125091 -0.360838 -0.138374
0.096346997 -0.74248397 -0.79182899
-0.215932 0.20447101 -0.31656799
-0.24932501 -0.55478001 -0.46271601
-0.192985 -0.55845898 -0.38216799
-0.310206 -0.55908197 -0.77130598
0.0078840004 0.140912 0.47598699
-0.050250001 0.15514299 0.477734
-0.316387 0.24856099 0.45793599
0.32342401 0.21933 -0.47895899
0.131376 0.62763298 0.23265401
-0.050393999 0.13865399 0.63872498
0.091637999 0.167916 0.55018198
0.33405301 0.59402102 0.13417201
0.49531099 -0.22624999 -0.29810801
0.51449698 -0.143539 -0.38061899
-0.254024 0.56255901 0.77312899
0.39211401 0.55694902 -0.093386002
-0.246776 0.67154002 0.622675
0.43356201 -0.47722101 -0.78018999
0.481309 -0.43369499 -0.61407298
-0.167169 0.54687202 0.84624702
0.45485899 0.44835499 -0.065408997
0.24207699 0.39143601 -0.89774901
0.48281401 -0.41063401 -0.47300699
0.082950003 0.44578099 0.847161
0.36768201 -0.54206598 -0.37840301
-0.042118002 0.38520801 0.88680601
-0.051004 0.53544402 0.87576801
-0.247081 0.31087899 -0.116667
0.16599201 0.31562501 0.744874
0.162818 0.36739099 0.774656
-0.06837 0.54721397 0.23727299
0.312033 0.56891102 -0.23753799
-0.158015 0.220973 0.95076001
0.1284 -0.19464 0.254944
-0.099937998 0.38118199 0.88911003
0.30715099 -0.55035901 -0.33607399
0.45900899 0.21690799 0.042254001
0.237078 -0.63246799 -0.39800999
-0.166586 0.244197 0.92839599
-0.130073 0.71197301 0.71573001
0.078224003 -0.15545 0.27425599
-0.216552 0.38564301 -0.067434996
-0.164253 0.42891201 0.093659997
0.51898402 -0.208828 -0.39220199
0.045272999 -0.49373299 -0.062339
-0.202374 0.31478301 -0.54480702
-0.41022599 -0.54547697 -0.95695001
-0.13012201 0.146984 0.70226198
0.41495699 -0.300486 -0.86971301
0.41556799 -0.35485801 -0.86986899
0.194051 0.59563202 0.525437
-0.011341 -0.238446 0.149867
-0.14601301 0.42037401 -0.51718801
0.38560301 0.47926101 0.35786599
0.42933401 0.389741 0.30785999
0.30563101 0.55481499 -0.28668299
-0.32191199 0.61341202 0.62813097
-0.422032 -0.217821 -0.46891099
0.43511799 0.128787 0.169678
-0.40114099 -0.131328 -0.54167002
0.195871 -0.62260097 -0.31898099
0.45792001 0.221413 0.121836
0.098004997 0.018267 0.39161199
-0.32482901 0.016028 -0.54498398
-0.097448997 -0.746503 -0.876782
0.204849 0.059866 0.420681
-0.30622199 0.038957998 -0.46459001
0.076931 0.62087101 -0.012377
0.157913 -0.59279001 -0.235008
-0.35971099 -0.455457 -0.53934401
-0.31709099 -0.031401999 -0.776797
-0.40419701 -0.316394 -0.61945498
0.229385 0.47057399 0.69924599
-0.37512299 0.089172997 -0.86980498
-0.104322 0.47739801 0.22453
0.30130699 0.46581599 0.55998999
-0.408007 -0.32059199 -0.77419299
0.070808001 -0.33925301 0.118234
-0.064111002 -0.54523098 -0.21022899
-0.17104401 0.28272599 0.160953
0.427542 -0.117294 -0.14667401
0.414307 -0.136035 -0.056255002
0.22341301 0.121422 -0.78542697
-0.189529 0.46853799 -0.97483701
-0.32033399 0.50235099 0.73126101
0.225868 0.21264 -0.96722102
0.241898 0.539509 -0.37447399
-0.34318 0.58388698 0.558734
-0.208749 0.013558 -0.056159999
0.40411001 -0.066173002 -0.94780099
-0.187868 0.38584599 0.074634001
0.40759 0.223294 -0.26862699
0.39829001 -0.212419 -0.067395002
0.125622 0.19097599 0.63732499
-0.51471698 -0.221661 -0.95025802
0.217007 0.60388798 0.370401
-0.161529 0.65796298 0.768641
0.048845001 -0.73370999 -0.61725801
-0.41818899 -0.233538 -0.54435098
0.17399999 0.52495903 0.75117397
-0.169209 0.195243 0.96041602
0.44885999 0.15903001 0.129692
0.41342801 -0.55516499 -0.548307
0.034982 0.200123 0.79267102
0.13774499 0.62088102 0.541668
-0.166015 0.46705201 0.85822099
0.45927501 0.374051 -0.040217999
0.39961201 -0.0036609999 0.18930499
0.083954997 0.37448001 0.85078198
0.34667701 -0.597893 -0.47476399
0.156083 0.231701 -0.95415998
-0.223133 0.23607001 -0.049667001
-0.14610299 0.168135 -0.63767099
-0.32473499 -0.58379698 -0.99617898
0.51045799 -0.27584499 -0.37126401
0.060879 0.164404 0.60697502
-0.153514 -0.201657 -0.046927001
0.103768 0.63957697 0.362508
-0.50265598 -0.147622 -0.94998002
0.039501999 0.17400201 0.71360803
-0.49561399 -0.13967399 -0.865448
-0.330724 0.35530499 0.70929402
0.416951 0.374383 -0.38165501
-0.42185101 0.010808 -0.965069
0.26230499 0.088477999 -0.79405802
-0.25362399 0.52289897 0.79545403
0.30234799 0.062501997 -0.711914
-0.159335 0.32586399 -0.94617999
-0.24545 0.44990501 0.81825
-0.14990801 0.318169 -0.990628
-0.29185 0.383255 0.77442998
-0.139247 0.75618398 0.87301302
-0.270895 0.239649 -0.94239402
0.060284998 -0.27829701 0.16931801
-0.409199 -0.28863999 -0.696455
0.243303 0.50588602 0.63852602
-0.133873 0.454916 -0.31246799
-0.38774201 -0.38251701 -0.71187401
-0.202334 0.379035 -0.281681
0.28356701 0.37889901 0.613913
-0.39935201 -0.13674 -0.38063201
-0.36577299 -0.046491999 -0.372237
0.43823501 -0.512595 -0.715841
-0.201729 -0.101579 -0.079507999
0.407213 -0.23001599 -0.93978
0.030835999 0.64857 0.39795801
0.291922 0.635961 0.037710998
0.127397 0.554465 -0.87649202
-0.071505003 0.62364602 0.89711702
0.41724801 0.22838999 -0.239933
-0.51109302 -0.23458301 -0.87448901
-0.078429997 -0.230619 0.058327999
0.219107 0.59207499 0.475694
0.114949 0.222627 0.71828002
-0.46610299 -0.127583 -0.84640998
-0.031652998 0.152797 0.79437399
0.186222 -0.30882299 0.14756399
0.40926799 -0.44723099 -0.87482399
-0.376203 -0.43872899 -0.80519301
0.38103601 0.38874501 0.44137299
0.102307 -0.45997199 0.0038940001
-0.068742 0.63375098 0.39624599
0.073671997 0.59586 -0.13241901
-0.148041 0.220015 -0.74903798
0.124274 -0.63205099 -0.30163601
-0.471681 -0.205263 -0.84574699
0.284778 0.56926399 0.47859299
0.17482901 0.23915 0.66663998
-0.40661001 0.46014899 0.46481699
-0.018075 -0.73550898 -0.62326699
-0.234 0.039879002 -0.219641
-0.34106699 0.014168 -0.396213
0.41661599 0.297748 -0.28529799
-0.46988899 -0.051096 -0.95779902
0.40169001 0.071942002 0.24950001
-0.186426 -0.69846702 -0.96817702
0.212611 -0.136737 0.27704301
0.027581999 0.70458603 0.71854502
-0.074051 0.25974301 0.93314397
0.012289 0.463671 -0.788369
0.38097399 0.054235999 -0.557832
0.089125998 -0.72074002 -0.914244
-0.34400901 0.306068 0.635409
0.070129998 -0.71257597 -0.52664
-0.36265501 0.53784698 0.55415899
-0.26961401 0.31617799 0.77782798
-0.220891 0.68686801 0.547149
0.103969 0.642456 0.53329802
-0.089194998 -0.15163299 0.089979
-0.244234 0.67281401 0.54296899
-0.49279201 -0.13570499 -0.96788698
0.166491 0.64066201 0.26207799
-0.46684101 -0.071073003 -0.97755003
0.25240499 0.124294 0.45218199
-0.208123 0.092504002 -0.424788
0.213452 0.109714 0.45636699
0.221708 0.484144 -0.70929098
0.43756801 -0.28689301 -0.227668
-0.38378599 -0.067396998 -0.63349199
-0.19864801 0.14257 -0.061767999
0.40195799 0.013593 -0.94786298
-0.080747999 0.52383202 0.233527
-0.098186001 -0.750157 -0.79933798
-0.46241501 -0.37767199 -0.99000001
-0.16417301 0.414496 -0.59578902
-0.29528499 0.042355999 -0.39075401
0.241174 0.62915999 0.18589699
0.445896 -0.20919999 -0.226316
-0.31275299 -0.52917898 -0.556297
-0.26849201 0.095103003 -0.79221898
-0.205844 0.53045499 -0.96833599
0.045717001 0.49970999 -0.27379799
-0.26867601 0.166417 -0.991808
0.31113201 0.59517801 -0.14739101
-0.122824 0.160293 0.99472499
-0.32413101 0.0070870002 -0.59537202
-0.106181 0.087449998 0.87334299
-0.171022 0.41098401 -0.77476102
0.160052 0.012927 0.39623901
-0.268381 0.058630001 -0.55083698
-0.13020401 -0.721237 -0.95148402
-0.13596299 0.16111 0.50457698
0.24628399 -0.67876101 -0.78537798
-0.100901 0.54940802 0.28675601
0.356653 0.0038149999 -0.71178502
-0.084370002 0.71872902 0.60353202
0.45225999 0.22764 -0.037296001
-0.18055999 0.28738001 0.87553
0.26101601 0.56588 -0.285561
-0.140421 0.195002 0.86886501
-0.27978399 -0.65775901 -0.955513
-0.166171 -0.72851902 -0.87557399
-0.133835 0.44930401 -0.70955402
-0.22843701 0.070019998 -0.45628199
-0.018207001 -0.76016498 -0.87442601
-0.161562 0.70510203 0.95980102
-0.33146599 0.31623101 0.69519502
-0.37877899 -0.36664599 -0.463485
-0.19664501 0.47803 -0.94592601
-0.27364299 0.027974 -0.718234
-0.24716599 -0.63977098 -0.79517698
-0.217443 -0.62261403 -0.638771
-0.17093401 -0.6584 -0.55615598
0.0039960002 -0.755826 -0.796749
0.42157301 0.5266 -0.038020998
-0.027818 0.549954 -0.95217901
-0.1806 0.62975299 0.86980098
0.28398901 -0.55047601 -0.31650901
-0.206232 0.29673299 0.056122001
-0.194225 0.61566401 0.39022899
-0.30593699 0.214609 0.63621098
0.17063899 0.515531 -0.794249
0.47326401 -0.31494501 -0.28061399
-0.40123099 -0.577048 -0.93837798
-0.244688 -0.70399803 -0.87907302
-0.17827 0.22277001 0.130109
-0.026205 -0.60680699 -0.28200901
0.22945 0.267544 -0.670856
-0.15906 0.31781599 0.23584799
0.44433701 -0.346863 -0.764745
0.132443 0.52928799 0.79218501
0.49189299 -0.39707601 -0.54794002
0.057220001 -0.020535 0.348501
-0.130777 0.75523502 0.782152
0.296765 0.047970999 -0.77555299
-0.26955 0.45416901 0.79785401
0.14792401 0.113 0.47472599
0.346439 0.113054 -0.87447399
0.105186 0.54995197 -0.234236
-0.182978 0.21936999 0.93702698
0.45325601 0.15244199 0.030707
0.222194 -0.643884 -0.39428201
0.46021801 -0.46254101 -0.71818697
-0.013587 -0.137353 0.203962
-0.17629801 0.712053 0.63734502
0.17715199 -0.240622 0.209061
-0.035631999 0.48067901 -0.241708
-0.353836 0.54926699 0.639256
-0.43073201 0.37949201 0.47199801
0.35919699 0.22700299 -0.387063
-0.313651 0.25326899 0.540618
-0.00082700001 -0.333377 0.084913
0.32460499 -0.52154303 -0.31057599
0.098637998 0.60174298 -0.97119498
-0.025607999 0.718234 0.785353
-0.35147801 -0.228919 -0.30535901
0.29832801 0.163185 -0.874672
0.35886201 0.55966502 -0.231655
-0.248404 0.633255 0.712143
0.198579 -0.67282403 -0.47501001
0.45000401 0.143611 -0.038609002
-0.240347 0.29412401 -0.063873
0.359202 0.16346499 -0.950737
0.166695 0.60647702 0.63013601
-0.014762 -0.200647 0.168245
0.39923501 -0.44341901 -0.301422
0.47340801 -0.043749001 -0.54397601
-0.38169399 -0.039976001 -0.545192
0.119647 -0.015764 0.376378
0.42609 -0.066513002 0.0080859996
-0.37598699 0.079627 -0.85212398
-0.245391 0.32412401 -0.219368
0.236137 0.383113 0.69667
0.175807 -0.525639 -0.12718201
0.43640599 0.309782 0.28123099
0.35726401 0.54276103 -0.28833601
-0.298612 0.63360798 0.62906402
-0.13084701 0.13697299 1
-0.31233299 -0.62010401 -0.84692597
0.42061499 0.53599697 0.177343
-0.077074997 0.161835 0.46409401
0.074530996 0.046128999 0.39871299
0.41557601 0.41574901 0.33496299
-0.034175001 0.44060901 -0.49595001
-0.38434201 0.47980499 0.39235401
-0.33595401 -0.303891 -0.31673199
-0.097474001 0.52820098 0.092859
0.395713 0.312951 -0.371907
0.135491 0.64026999 0.30736601
-0.12573899 0.576204 -0.95965803
0.33904901 0.61216903 -0.061239
0.52204502 -0.22277801 -0.43928099
0.211362 0.55031699 -0.95288199
0.012791 0.614124 0.84149098
-0.38303399 0.38593799 0.55571997
0.31382 0.62834501 -0.003178
0.463624 -0.030824 -0.36575601
-0.40200001 0.386397 0.52476698
0.243003 0.43196601 -0.87065899
0.50478601 -0.32375899 -0.39820799
0.289316 -0.44518599 -0.157097
-0.15438101 0.72416103 0.94033998
0.212926 0.63785702 0.020353001
-0.054278001 -0.39485201 -0.046383001
-0.495758 -0.36353901 -0.95779699
-0.40726799 -0.214946 -0.68710202
0.052111 -0.22297899 0.212732
0.21600901 0.576437 -0.28567699
-0.15348201 -0.67802101 -0.639094
0.318663 0.118712 -0.54476202
-0.069412 0.157032 0.39196101
-0.33474699 -0.51934397 -0.716353
0.243521 0.496483 -0.91710299
0.51349598 -0.29956001 -0.43270901
-0.143141 0.70172602 0.94703001
0.041797999 0.664002 0.45641401
0.40879399 -0.192416 -0.87472701
0.367607 -0.606619 -0.62027401
0.46303499 -0.0070119998 -0.47332001
0.32745501 -0.44263899 -0.231397
-0.14542501 0.14439701 0.63931102
-0.31610599 0.47564799 0.34400499
0.33872199 0.33743599 -0.55018598
0.402715 0.37347001 0.39309901
0.233317 -0.45312399 -0.052085001
-0.12775099 -0.28640899 -0.068268999
-0.16576201 -0.162793 -0.039190002
0.40864301 -0.27463099 -0.937428
0.021237999 0.63976097 0.38062301
0.26863599 0.64098001 0.080789998
0.47580099 -0.082672 -0.30968499
-0.172925 0.39710799 -0.48389101
0.013873 -0.475548 -0.057913002
-0.46603599 -0.46726 -0.94442201
0.174712 0.59995103 0.69236797
0.18324099 0.641684 0.235469
-0.280303 -0.63183701 -0.98657
0.41144001 0.21989401 0.31979901
-0.153787 -0.71057802 -0.96849501
-0.087314002 0.541637 0.045942999
-0.37045199 -0.318124 -0.38745001
-0.41395199 -0.281847 -0.53796399
0.182531 0.43787301 0.79209799
0.37905499 -0.54221499 -0.87847799
0.45200899 -0.38606 -0.30675399
-0.27794701 -0.44317499 -0.36416
-0.001107 -0.015844001 0.296471
0.36304501 -0.53444803 -0.93857402
-0.296271 0.56558299 0.396415
0.29565999 0.26259199 -0.52866501
-0.39752501 0.39412001 0.36532
-0.23525099 0.27423701 0.36614901
0.121107 0.520441 -0.41255999
0.35958901 -0.248431 0.0069570001
-0.350934 0.098010004 -0.95587498
0.44729599 0.004185 -0.062020998
-0.23543499 0.052767001 -0.30820099
-0.053146999 -0.75089699 -0.71539199
0.23279101 0.18456399 -0.874749
-0.022346999 0.71715301 0.71063
0.31616601 -0.57887 -0.39481801
-0.102021 0.25097799 0.95619601
-0.48408899 -0.073250003 -0.94755298
-0.154177 0.26169199 0.30347601
-0.18210401 0.25689101 -0.61051399
-0.41644001 -0.50596201 -0.97648001
0.062785 -0.55140698 -0.13167199
0.41036999 -0.158729 -0.77161598
-0.000787 0.69651699 0.55960202
0.501643 -0.157106 -0.31754899
-0.28349999 0.21933 -0.875
-0.076347999 -0.62164801 -0.36245701
-0.20625401 0.237197 0.028267
0.151631 0.159372 0.54303801
0.15349001 0.52416402 -0.60379201
0.387214 -0.300585 -0.156179
0.396974 0.090300001 -0.37134299
-0.303253 0.23881 0.54084402
0.082474001 -0.73280102 -0.63276201
-0.18365601 -0.078969002 0.002134
0.40494701 -0.140029 -0.878416
-0.060869001 0.675542 0.47383201
-0.31162301 -0.158121 -0.26150301
-0.18269999 0.68760502 0.70633501
0.47258401 -0.45764399 -0.623362
0.45113501 0.38726601 -0.148541
0.39968401 -0.068062 0.139447
0.151077 0.385995 0.796027
-0.23895399 0.237413 -0.145162
0.44049901 -0.076798998 -0.22335701
0.047442 -0.394981 0.053050999
-0.47366199 -0.39178899 -0.87189698
0.43600199 -0.53074503 -0.62882298
-0.351751 -0.067106999 -0.28965899
0.144437 -0.72848701 -0.71528798
0.188903 0.55663699 0.70275098
-0.093018003 -0.58375502 -0.292541
-0.17900699 -0.46344 -0.31423101
-0.27314699 0.22120699 0.70809001
-0.21778899 0.639575 0.43851799
0.065715998 0.48035401 -0.37579399
0.26713699 -0.31712201 0.094626002
-0.172332 0.38657099 0.2252
-0.065030999 -0.715644 -0.61025
-0.21760701 0.098305002 -0.23208
0.50735497 -0.30009899 -0.59088701
0.130542 0.63371903 0.69853598
-0.414635 -0.143362 -0.473461
-0.34386501 0.30169499 0.55107301
0.34621999 -0.37087399 -0.154627
-0.17279901 0.157461 0.545811
0.442902 0.007303 -0.37761101
-0.244418 0.65684599 0.68298298
0.35897899 0.571522 -0.192138
0.104061 0.65725303 0.68935901
0.48136601 -0.165764 -0.638143
-0.078336 0.212154 0.959508
0.363094 -0.56716102 -0.86742198
0.25452301 -0.66408402 -0.84475398
-0.15739401 0.173236 0.47877201
-0.256975 -0.173022 -0.229138
-0.01957 0.58471799 0.21056201
-0.064939 0.157315 0.95005298
-0.39417699 -0.140838 -0.71813202
-0.25834799 0.242938 -0.958628
-0.32830399 0.39416099 0.72300601
-0.18584999 0.30970499 -0.97777098
0.195265 0.213283 -0.78353602
-0.0066169999 0.56695801 -0.12899099
0.217004 0.61369997 -0.145513
0.35085401 0.30363101 0.46715799
-0.390912 -0.55689698 -0.866377
0.26729399 0.209997 -0.61441302
0.077670999 0.62858099 0.067695998
-0.057944 0.558029 0.11043
-0.319621 -0.28509799 -0.28896901
-0.197107 0.089511 -0.55756599
-0.26078999 -0.65193301 -0.97860998
0.40033999 0.15619799 0.318923
0.40734199 -0.071677998 -0.72104901
-0.170068 0.065274 0.107645
0.199301 0.46291101 -0.96809798
-0.39202699 -0.37162599 -0.53509998
-0.15888099 0.47982499 -0.134479
-0.223887 0.071869999 -0.61615098
0.26575899 0.38670799 -0.87084699
-0.175127 0.44740501 0.025906
-0.34535101 0.479525 0.686324
0.234653 0.51862198 -0.45686299
0.26672301 -0.69936103 -0.62621802
0.406863 0.53075999 -0.136105
-0.16953699 0.63719398 0.785393
0.43127799 0.46642801 0.23013701
-0.055284001 0.45014 -0.65708703
-0.17304701 -0.37791601 -0.238553
0.029177999 -0.75306898 -0.86744702
0.33723 0.516527 -0.38044301
-0.290088 0.63920498 0.55818701
0.117445 0.29758701 0.78715599
0.276274 0.203528 -0.96392798
-0.214763 0.36354899 -0.464692
-0.452059 -0.46114901 -0.872361
0.454824 -0.141168 -0.237781
-0.288286 -0.066908002 -0.239189
-0.23994 0.077941 -0.77459699
0.071267001 0.158067 0.52760899
-0.233945 0.236755 -0.20659401
0.406883 -0.36689699 -0.93696803
-0.239408 0.26263201 -0.083549
0.49682501 -0.069504 -0.476621
-0.102711 0.54569298 0.87686998
0.116872 0.54533499 -0.278541
0.38984999 0.096761003 -0.94749999
-0.089717001 0.70896697 0.554214
0.39138201 -0.11404 -0.79320198
0.30183101 0.42835599 -0.61809897
0.451873 0.46605599 0.041561
0.38125399 0.062293001 0.26894599
-0.361213 0.37862301 0.62861502
0.159422 -0.103597 0.31559399
-0.39600301 -0.139634 -0.637438
-0.27449399 0.27064699 -0.87680203
-0.238438 0.38613901 0.31207201
0.102651 0.64586401 0.72195601
0.51228499 -0.215232 -0.54506803
-0.24315199 0.246741 -0.97392797
-0.39811799 -0.159569 -0.797126
-0.39700601 0.318005 0.452411
0.395033 -0.36792201 -0.22901601
-0.35513201 0.00039500001 -0.47273701
0.142436 0.079120003 0.44331801
0.44262701 0.021968 -0.46294901
0.268525 0.093266003 -0.71515101
-0.175286 0.54408199 -0.94686198
-0.39682701 -0.31675199 -0.45850599
-0.082101002 0.54539502 -0.01578
-0.24135 0.32833299 -0.29301199
-0.102537 0.43209201 0.88153899
0.42084101 0.001462 -0.59891701
-0.17263 0.47529301 -0.878649
-0.158206 0.47564799 0.032129001
-0.34576899 -0.36014599 -0.37968901
-0.091658004 -0.72604901 -0.96074498
-0.42478901 0.027217001 -0.94593698
0.43110701 0.382431 -0.31084001
-0.199641 0.30483699 -0.79508799
-0.32703301 -0.53320199 -0.78664899
0.32448599 0.282244 0.484429
-0.086790003 -0.61618501 -0.37128901
-0.039682999 -0.64150298 -0.37045699
-0.31042501 0.150916 -0.84814501
-0.35391501 -0.053769 -0.70566601
-0.37546301 -0.439042 -0.78100199
0.354662 0.39637801 0.50051099
0.39037901 -0.55694699 -0.46208
0.15709899 0.30322599 -0.95911199
0.39588699 0.058922999 -0.47571999
0.090269998 -0.73387301 -0.872657
0.035452999 0.60268903 0.237846
-0.225262 -0.206201 -0.222987
0.246989 0.57361299 0.55324501
-0.41438699 -0.23818199 -0.78226697
-0.00082900003 0.20576701 0.85980201
0.47710699 -0.39316601 -0.38245901
0.22548801 0.47597799 -0.87331402
-0.192276 0.087952003 -0.61660498
-0.116862 0.53175002 -0.87924999
-0.348611 0.55357897 0.47175199
-0.211657 0.32000801 -0.87930602
-0.079360999 0.69108599 0.907175
-0.233925 0.55243099 0.35684699
-0.01747 -0.754677 -0.78036898
-0.224041 0.074078999 -0.38956499
0.214664 0.15553699 -0.82145101
-0.031528998 0.52308702 -0.189969
-0.32398701 0.53885198 0.71069902
0.023626 -0.68342 -0.38159499
-0.104632 0.74312502 0.717197
0.16237099 -0.38235599 0.082294002
-0.058486 0.448073 -0.354559
-0.361148 0.467327 0.53928298
-0.079971999 0.54167199 -0.075487003
0.44498199 0.048829999 -0.146853
-0.16801301 0.157759 0.733495
-0.150427 0.200937 0.228407
-0.21725699 -0.135148 -0.136351
0.424797 0.27483499 -0.22721399
0.39921501 -0.133632 0.078530997
-0.47162601 -0.065453 -0.85704601
0.146433 -0.706828 -0.90800399
0.33990601 0.088486001 -0.555866
0.21118601 0.192748 0.54994398
0.24737699 0.59954202 0.318625
0.40724799 -0.226211 -0.15386
0.27111101 0.229137 0.55494797
-0.21300501 0.22407299 -0.37347999
-0.177569 -0.61373699 -0.46690801
0.361332 -0.58946598 -0.78939098
-0.027394 0.594024 0.30249101
-0.11158 0.078732997 0.23699
0.18278199 0.53336602 -0.87910098
-0.294404 0.073574997 -0.796193
-0.30173701 0.110679 -0.99843401
-0.050388999 -0.70497102 -0.549878
-0.212621 0.111868 -0.15579601
0.45008999 0.31769499 -0.095431
0.49458399 -0.35407901 -0.64352697
0.40674099 0.370325 -0.42136499
-0.398339 -0.062408 -0.43825099
-0.26906899 -0.38472399 -0.31843001
-0.058267001 -0.73022002 -0.95247698
-0.106616 0.47920999 -0.79257601
0.311775 0.094099998 -0.61811399
0.146681 0.63682699 0.029658999
-0.313398 0.28930801 0.713745
-0.31677401 -0.028224999 -0.29661399
-0.070343003 0.71488202 0.87017101
0.099143997 0.60026699 -0.95685601
0.29552099 0.384563 -0.70477802
-0.049587 0.13227899 0.87417001
0.221246 0.58994502 -0.23605099
0.20716999 0.29989699 -0.79066497
-0.018321 0.58100998 0.012381
-0.126148 0.22415 0.31511
0.46294901 -0.079227 -0.61899298
-0.079852 0.73314899 0.70339602
0.38957399 -0.0047980002 -0.86635
0 0 0 1 0 0 0 1 0 0 0 1 0 0 0 0 0 1137 1 0 0
